SplineFontDB: 1.0
FontName: CMUBright-Roman
FullName: CMU Bright Roman
FamilyName: CMU Bright
Weight: Medium
Copyright: Converted by Andrey V. Panov from TeX fonts
Comments: 2006-3-1: Created.
Version: 0.5.0
ItalicAngle: 0
UnderlinePosition: -100
UnderlineWidth: 50
Ascent: 800
Descent: 200
XUID: [1067 9666685]
OS2Version: 0
OS2_WeightWidthSlopeOnly: 0
OS2_UseTypoMetrics: 0
CreationTime: 1148540203
ModificationTime: 1161845955
OS2TypoAscent: 0
OS2TypoAOffset: 1
OS2TypoDescent: 0
OS2TypoDOffset: 1
OS2TypoLinegap: 0
OS2WinAscent: 0
OS2WinAOffset: 1
OS2WinDescent: 0
OS2WinDOffset: 1
HheadAscent: 0
HheadAOffset: 1
HheadDescent: 0
HheadDOffset: 1
OS2Vendor: 'PfEd'
ScriptLang: 11
 1 latn 1 dflt 
 1 DFLT 1 dflt 
 1 hebr 1 dflt 
 1 cyrl 1 dflt 
 3 cyrl 1 dflt hebr 1 dflt latn 1 dflt 
 3 grek 1 dflt hebr 1 dflt latn 1 dflt 
 3 cyrl 1 dflt latn 1 dflt yi   1 dflt 
 2 hebr 1 dflt latn 1 dflt 
 1 grek 1 dflt 
 1 latn 1 NLD  
 3 cyrl 1 dflt grek 1 dflt latn 1 dflt 
Encoding: UnicodeBmp
Compacted: 1
UnicodeInterp: none
NameList: Adobe Glyph List
DisplaySize: 18
AntiAlias: 1
FitToEm: 1
WinInfo: 32 16 14
BeginChars: 65536 204
StartChar: grave
Encoding: 96 96 0
Width: 525
Flags: W
TeX: 666 0 32767 32767
Fore
101 667 m 1
 166 667 l 1
 316 538 l 1
 285 538 l 2
 257 538 278 528 101 667 c 1
EndSplineSet
EndChar
StartChar: quotedblleft
Encoding: 8220 8220 1
Width: 311
Flags: W
TeX: 694 0 32767 32767
HStem: 505 79<25 103 207 285> 675 20G<64 104 246 286>
VStem: 25 78<505 555> 207 78<505 555>
Fore
64 695 m 1
 104 695 l 1
 80 584 l 1
 103 584 l 1
 103 505 l 1
 25 505 l 1
 25 555 l 1
 26 584 l 1
 64 695 l 1
246 695 m 1
 286 695 l 1
 262 584 l 1
 285 584 l 1
 285 505 l 1
 207 505 l 1
 207 555 l 1
 208 584 l 1
 246 695 l 1
EndSplineSet
KernsSLIFO: 1 117 1 0 69 117 1 0
EndChar
StartChar: quotedblright
Encoding: 8221 8221 2
Width: 311
Flags: W
TeX: 694 0 32767 32767
HStem: 616 79<207 285>
VStem: 24 78<616 616> 207 77<616 616>
Fore
24 694 m 1
 103 694 l 1
 103 645 l 1
 102 616 l 1
 64 505 l 1
 24 505 l 1
 48 616 l 1
 24 616 l 1
 24 694 l 1
207 695 m 1
 285 695 l 1
 285 645 l 1
 284 616 l 1
 246 505 l 1
 206 505 l 1
 230 616 l 1
 207 616 l 1
 207 695 l 1
EndSplineSet
KernsSLIFO: 2 117 1 0 12 117 1 0
EndChar
StartChar: quotedblbase
Encoding: 8222 8222 3
Width: 311
Flags: W
TeX: 77 111 32767 32767
HStem: 0 78<24 103 207 285>
VStem: 24 78<0 0> 207 77<0 0>
Fore
24 78 m 1
 103 78 l 1
 103 29 l 1
 102 0 l 1
 64 -111 l 1
 24 -111 l 1
 48 0 l 1
 24 0 l 1
 24 78 l 1
207 78 m 1
 285 78 l 1
 285 29 l 1
 284 -0 l 1
 246 -111 l 1
 206 -111 l 1
 230 0 l 1
 207 0 l 1
 207 78 l 1
EndSplineSet
KernsSLIFO: 54 -29 1 0 44 -29 1 0 40 -29 1 0 52 -29 1 0 62 -87 1 0 60 -87 1 0 59 -117 1 0 92 -58 1 0 91 -87 1 0 94 58 1 0 76 58 1 0 79 117 1 0 3 117 1 0 17 117 1 0
EndChar
StartChar: endash
Encoding: 8211 8211 4
Width: 525
Flags: W
TeX: 472 0 32767 32767
HStem: 267 50<0 525>
Fore
0 317 m 1
 525 317 l 1
 525 267 l 1
 0 267 l 1
 0 317 l 1
EndSplineSet
Position: 0 0 'ITLC' dx=0 dy=0 dh=29 dv=0
EndChar
StartChar: emdash
Encoding: 8212 8212 5
Width: 1050
Flags: W
TeX: 472 0 32767 32767
HStem: 267 50<0 1050>
Fore
0 317 m 1
 1050 317 l 1
 1050 267 l 1
 0 267 l 1
 0 317 l 1
EndSplineSet
Substitution: 0 3 'locl' emdashcyr
Substitution: 0 3 'salt' emdashcyr
Position: 0 0 'ITLC' dx=0 dy=0 dh=29 dv=0
EndChar
StartChar: exclam
Encoding: 33 33 6
Width: 325
Flags: W
TeX: 694 0 32767 32767
HStem: 0 78<123 201> 675 20G<123 201>
VStem: 123 71<230 695> 123 78<0 78 671 695>
Fore
123 78 m 1xd0
 201 78 l 1
 201 0 l 1
 123 0 l 1
 123 78 l 1xd0
123 695 m 1xe0
 201 695 l 1xd0
 194 230 l 1
 193 177 l 1
 131 177 l 1
 123 671 l 1
 123 695 l 1xe0
EndSplineSet
EndChar
StartChar: quotedbl
Encoding: 34 34 7
Width: 525
Flags: W
TeX: 694 0 32767 32767
HStem: 675 20G<142 207 317 382>
Fore
142 695 m 1
 207 695 l 1
 199 386 l 1
 149 386 l 1
 144 590 l 1
 142 695 l 1
382 695 m 1
 375 386 l 1
 325 386 l 1
 317 695 l 1
 382 695 l 1
EndSplineSet
EndChar
StartChar: numbersign
Encoding: 35 35 8
Width: 875
Flags: W
TeX: 694 166 32767 32767
HStem: -166 21G<191.5 211 428.5 448.5> 132 51<92 269 306 506 543 781> 345 51<78 331 368 568 605 783> 674 20G<663 682>
Fore
95 345 m 2
 75 345 59 350 59 370 c 0
 59 381 63 396 93 396 c 2
 331 396 l 1
 408 661 l 2
 410 666 414 694 437 694 c 0
 456 693 460 675 461 675 c 1
 464 658 445 614 383 396 c 1
 568 396 l 1
 645 661 l 2
 647 666 652 694 674 694 c 0
 690 694 698 684 698 669 c 0
 698 664 697 658 695 652 c 2
 621 396 l 1
 777 396 l 2
 784 396 791 396 798 394 c 0
 808 391 816 381 816 370 c 0
 816 361 811 345 783 345 c 2
 605 345 l 1
 558 183 l 1
 779 183 l 2
 800 183 816 178 816 158 c 0
 816 148 811 132 781 132 c 2
 543 132 l 1
 466 -134 l 2
 465 -138 460 -166 437 -166 c 0
 420 -166 414 -155 414 -140 c 0
 414 -135 414 -130 416 -124 c 2
 491 132 l 1
 306 132 l 1
 229 -134 l 2
 227 -138 222 -166 200 -166 c 0
 183 -166 176 -155 176 -140 c 0
 176 -135 177 -130 179 -124 c 2
 253 132 l 1
 98 132 l 2
 91 132 83 132 76 134 c 0
 66 138 59 147 59 158 c 0
 59 166 62 183 92 183 c 2
 269 183 l 1
 316 345 l 1
 95 345 l 2
368 345 m 1
 321 183 l 1
 506 183 l 1
 553 345 l 1
 368 345 l 1
EndSplineSet
EndChar
StartChar: dollar
Encoding: 36 36 9
Width: 525
Flags: W
TeX: 750 55 32767 32767
VStem: 58 59<499 557.5> 236 51<-55 -7 47 319 403 648 701 750> 236 229<46 331> 406 59<155.5 210>
Fore
236 331 m 1xa0
 70 366 58 482 58 516 c 0
 58 599 119 686 236 701 c 1
 236 750 l 1
 287 750 l 1
 287 702 l 1
 361 699 411 671 448 647 c 1
 438 592 l 1
 386 625 355 644 287 649 c 1
 287 391 l 1xc0
 307 387 326 382 345 374 c 0
 385 356 464 301 465 192 c 0xa0
 464 70 366 3 287 -7 c 1
 287 -55 l 1
 236 -55 l 1
 236 -7 l 1xc0
 159 -2 99 25 46 61 c 1
 56 119 l 1
 114 76 156 54 236 46 c 1
 236 331 l 1xa0
236 648 m 1
 152 633 117 574 117 525 c 0
 117 478 148 423 236 403 c 1
 236 648 l 1
287 47 m 1
 369 62 406 128 406 183 c 0xd0
 406 237 376 297 287 319 c 1
 287 47 l 1
EndSplineSet
EndChar
StartChar: percent
Encoding: 37 37 10
Width: 875
Flags: W
TeX: 750 55 32767 32767
HStem: -55 50<633 690.5> 297 50<640.5 693> 347 51<167 224.5> 699 51<181.5 242>
VStem: 58 61<489.5 571> 291 59<495 608> 524 62<87 168> 758 58<92.5 203.5>
Fore
205 347 m 0
 129 347 58 430 58 549 c 0
 58 593 68 637 90 675 c 0
 117 720 159 750 205 750 c 0
 279 750 350 668 350 548 c 0
 350 442 293 366 229 350 c 0
 221 348 214 347 205 347 c 0
671 749 m 0
 681 749 690 741 690 730 c 0
 690 720 681 709 676 700 c 2
 223 -44 l 2
 219 -49 213 -55 205 -55 c 0
 194 -55 186 -45 186 -35 c 0
 186 -26 191 -20 195 -13 c 2
 651 736 l 2
 657 744 663 749 671 749 c 0
291 549 m 0
 291 638 250 699 203 699 c 0
 160 699 139.091 658.966 132 640 c 0
 121.139 610.948 119 579 119 549 c 0
 119 471 135 443 149 425 c 0
 163 409 183 398 204 398 c 0
 245 398 266 442 272 454 c 0
 286 483 291 516 291 549 c 0
671 -55 m 0
 595 -55 524 28 524 146 c 0
 524 190 534 234 557 272 c 0
 570 294 610 347 671 347 c 0
 675 347 680 347 685 346 c 0
 751 337 816 262 816 145 c 0
 816 40 759 -37 696 -52 c 0
 689 -54 681 -55 671 -55 c 0
758 146 m 0
 758 236 716 297 670 297 c 0
 627 297 605.091 256.966 598 238 c 0
 587.139 208.948 586 177 586 146 c 0
 586 69 601 40 616 22 c 0
 629 6 649 -5 670 -5 c 0
 711 -5 733 39 738 51 c 0
 752 80 758 113 758 146 c 0
EndSplineSet
EndChar
StartChar: ampersand
Encoding: 38 38 11
Width: 783
Flags: W
TeX: 694 0 32767 32767
HStem: -17 53<178 273.5> 661 50<271.5 360.5>
VStem: 43 65<100.5 184.5> 177 53<489.5 587.5> 378 58<554.5 591>
Fore
699 417 m 1
 639 188 495 81 493 79 c 1
 535 52 563 37 615 37 c 0
 675 37 710 53 724 57 c 1
 724 1 l 1
 687 -10 655 -17 613 -17 c 0
 545 -17 492 9 444 45 c 1
 376 -1 293 -17 237 -17 c 0
 119 -17 43 58 43 143 c 0
 43 226 107 264 211 355 c 1
 194 405 177 452 177 527 c 0
 177 631 232 711 311 711 c 0
 410 711 436 606 436 566 c 0
 436 543 431.783 511.179 383 452 c 0
 346.839 408.133 294 361 280 350 c 1
 348 219 430 139 452 115 c 1
 562 197 621 336 646 431 c 1
 699 417 l 1
310 661 m 0
 264 661 230 618 230 557 c 0
 231 497 243 446 259 399 c 1
 298 431 338.884 477.076 356 503 c 0
 375.866 533.089 378 552 378 565 c 0
 378 617 351 661 310 661 c 0
108 150 m 0
 108 87 161 36 236 36 c 0
 311 36 366 62 403 81 c 1
 288 201 256 265 233 307 c 1
 216 293 144 230 133 218 c 0
 116 197 108 173 108 150 c 0
EndSplineSet
EndChar
StartChar: quoteright
Encoding: 8217 8217 12
Width: 292
Flags: W
TeX: 694 0 32767 32767
HStem: 616 78<106 185>
VStem: 106 78<616 616>
Fore
106 694 m 1
 185 694 l 1
 185 645 l 1
 184 616 l 1
 146 505 l 1
 106 505 l 1
 130 616 l 1
 106 616 l 1
 106 694 l 1
EndSplineSet
KernsSLIFO: 6 117 1 0 36 117 1 0 2 117 1 0
EndChar
StartChar: parenleft
Encoding: 40 40 13
Width: 408
Flags: W
TeX: 750 222 32767 32767
VStem: 91 64<100.5 359.5>
Fore
91 264 m 0
 91 455 153 633 299 750 c 1
 349 750 l 1
 318 721 292.047 697.968 258 647 c 0
 175.115 522.923 155 373 155 266 c 0
 155 -65 319 -194 349 -222 c 1
 299 -222 l 1
 153 -105 91 72 91 264 c 0
EndSplineSet
EndChar
StartChar: parenright
Encoding: 41 41 14
Width: 408
Flags: W
TeX: 750 222 32767 32767
VStem: 252 64<169.5 401.5>
Fore
316 266 m 0
 316 73 254 -105 108 -222 c 1
 58 -222 l 1
 92 -190 124.889 -159.934 162 -98 c 0
 235.78 25.1317 252 164 252 266 c 0
 252 537 136 673 91 719 c 2
 58 750 l 1
 108 750 l 1
 254 634 316 456 316 266 c 0
EndSplineSet
EndChar
StartChar: asterisk
Encoding: 42 42 15
Width: 525
Flags: W
TeX: 750 0 32767 32767
HStem: 635 20G<94 110 413 431>
VStem: 236 50<711 734>
Fore
287 349 m 0
 287 326 273 320 262 320 c 0
 247 320 240 331 239 334 c 1
 237 337 237 339 237 347 c 0
 237 362 240 400 248 511 c 1
 192 471 116 415 104 415 c 0
 80 415 77 441 77 441 c 1
 83 468 87 459 236 535 c 1
 71 616 82 607 77 629 c 1
 78 634 83 655 105 655 c 0
 115 655 113 654 248 558 c 1
 241 659 236 701 236 721 c 0
 236 747 254 749 262 749 c 0
 275 749 283 739 284 735 c 1
 286 733 286 730 286 723 c 0
 286 707 283 670 275 558 c 1
 331 598 407 655 419 655 c 0
 443 655 446 628 446 628 c 1
 440 602 437 611 287 535 c 1
 451 454 441 463 446 441 c 1
 445 436 440 415 418 415 c 0
 409 415 410 416 275 511 c 1
 282 411 287 369 287 349 c 0
EndSplineSet
EndChar
StartChar: plus
Encoding: 43 43 16
Width: 642
Flags: W
TeX: 527 -1 32767 32767
HStem: 239 51<93 295 346 548>
VStem: 295 51<36 239 290 506.5>
Fore
321 526 m 0
 331 526 346 521 346 492 c 2
 346 290 l 1
 548 290 l 2
 578 290 582 273 582 264 c 0
 582 244 567 239 547 239 c 2
 346 239 l 1
 346 37 l 2
 346 19 341 2 320 2 c 0
 313 2 295 5 295 36 c 2
 295 239 l 1
 94 239 l 2
 75 239 59 243 59 264 c 0
 59 274 63 290 93 290 c 2
 295 290 l 1
 295 491 l 2
 295 510 300 526 321 526 c 0
EndSplineSet
EndChar
StartChar: comma
Encoding: 44 44 17
Width: 292
Flags: W
TeX: 77 111 32767 32767
HStem: 0 78<106 185>
VStem: 106 78<0 0>
Fore
106 78 m 1
 185 78 l 1
 185 29 l 1
 184 -0 l 1
 146 -111 l 1
 106 -111 l 1
 130 0 l 1
 106 0 l 1
 106 78 l 1
EndSplineSet
EndChar
StartChar: hyphen
Encoding: 45 45 18
Width: 350
Flags: W
TeX: 472 0 32767 32767
HStem: 211 50<11 291>
Fore
11 261 m 1
 291 261 l 1
 291 211 l 1
 11 211 l 1
 11 261 l 1
EndSplineSet
EndChar
StartChar: period
Encoding: 46 46 19
Width: 292
Flags: W
TeX: 77 0 32767 32767
HStem: 0 78<106 184>
VStem: 106 78<0 78>
Fore
106 78 m 1
 184 78 l 1
 184 0 l 1
 106 0 l 1
 106 78 l 1
EndSplineSet
EndChar
StartChar: slash
Encoding: 47 47 20
Width: 525
Flags: W
TeX: 750 222 32767 32767
Fore
441 749 m 0
 454 749 466 738 466 725 c 0
 466 714 460 705 457 695 c 2
 115 -186 l 2
 109 -200 102 -222 83 -222 c 0
 70 -222 59 -210 59 -197 c 0
 59 -190 62 -183 64 -176 c 2
 411 718 l 2
 417 733 423 749 441 749 c 0
EndSplineSet
EndChar
StartChar: zero
Encoding: 48 48 21
Width: 525
Flags: W
TeX: 656 0 32767 32767
HStem: -17 51<236 282.5> 622 50<223 288>
VStem: 52 65<240 427.5> 407 65<225.5 413.5>
Fore
262 672 m 0
 314 672 364.972 649.975 399 612 c 0
 433.971 572.974 472 501 472 326 c 0
 472 125 420 29 327 -5 c 0
 306 -13 286 -17 262 -17 c 0
 210 -17 160 5 125 43 c 0
 90 82 52 153 52 327 c 0
 52 528 103 626 197 661 c 0
 214 667 236 672 262 672 c 0
262 622 m 0
 184 622 146 564 131 507 c 0
 117 458 117 406 117 355 c 0
 117 336 l 0
 117 177 135 121 162 84 c 0
 186 53 223 34 262 34 c 0
 303 34 340 54 364 87 c 0
 400 138 407 221 407 338 c 0
 407 355 l 0
 407 488 389 539 365 572 c 0
 340 604 302 622 262 622 c 0
EndSplineSet
Substitution: 0 10 'onum' zerooldstyle
EndChar
StartChar: one
Encoding: 49 49 22
Width: 525
Flags: W
TeX: 656 0 32767 32767
HStem: -0 50<111 438>
VStem: 242 65<50 672>
Fore
105 607 m 1
 217 607 264 646 291 672 c 1
 307 672 l 1
 307 50 l 1
 438 50 l 1
 438 -0 l 1
 111 -0 l 1
 111 50 l 1
 242 50 l 1
 242 585 l 1
 194 561 147 556 105 556 c 1
 105 607 l 1
EndSplineSet
Substitution: 0 10 'onum' oneoldstyle
EndChar
StartChar: two
Encoding: 50 50 23
Width: 525
Flags: W
TeX: 656 0 32767 32767
HStem: 0 56<52 472> 619 53<186.5 311>
VStem: 405 67<421.5 527>
Fore
248 672 m 0
 374 672 472 587 472 467 c 0
 472 377 414 318 322 242 c 0
 254.085 185.897 306 233 109 56 c 1
 472 56 l 1
 472 0 l 1
 52 0 l 1
 52 53 l 1
 219 209 196 187 263 244 c 0
 342.971 312.035 405 377 405 466 c 0
 405 558 329 619 234 619 c 0
 178 619 119 595 86 482 c 2
 80 459 l 1
 43 504 l 1
 69 590 125 672 248 672 c 0
EndSplineSet
Substitution: 0 10 'onum' twooldstyle
EndChar
StartChar: three
Encoding: 51 51 24
Width: 525
Flags: W
TeX: 656 0 32767 32767
HStem: -17 52<200.5 329.5> 622 50<234 329.5>
VStem: 385 66<474 555.5> 410 70<131.5 223>
Fore
264 -17 m 0xd0
 137 -17 45 80 44 102 c 0
 44 108 50 131 53 147 c 1
 106 73 182 36 263 35 c 0
 361 35 410 105 410 182 c 0xd0
 410 264 358 306 317 320 c 0
 284 332 260 327 243 329 c 2
 174 329 l 1
 174 379 l 1
 259 385 267 386 291 395 c 0
 320 407 384 446 385 525 c 0
 385 583 339 622 266 622 c 0
 202 622 142 590 105 536 c 0
 99 527 94 518 89 509 c 1
 58 553 l 1
 125 661 225 672 266 672 c 0
 393 672 451 586 451 525 c 0xe0
 451 423 364 371 329 355 c 1
 432 326 480 250 480 181 c 0
 480 82 395 -17 264 -17 c 0xd0
EndSplineSet
Substitution: 0 10 'onum' threeoldstyle
EndChar
StartChar: four
Encoding: 52 52 25
Width: 525
Flags: W
TeX: 656 0 32767 32767
HStem: -0 21G<318 381> 181 53<29 321 381 495>
VStem: 318 63<-0 181>
Fore
305 664 m 1
 381 664 l 1
 381 234 l 1
 495 234 l 1
 495 181 l 1
 381 181 l 1
 381 -0 l 1
 318 -0 l 1
 318 181 l 1
 29 181 l 1
 29 235 l 1
 305 664 l 1
321 607 m 1
 298 546 118 275 94 234 c 1
 321 234 l 1
 321 607 l 1
EndSplineSet
Substitution: 0 10 'onum' fouroldstyle
EndChar
StartChar: five
Encoding: 53 53 26
Width: 525
Flags: W
TeX: 656 0 32767 32767
HStem: -17 52<206.5 311.538> 371 51<238 333> 602 53<91 437>
VStem: 91 61<297 655> 401 71<137 274.5>
Fore
472 204 m 0
 472 86.0852 377.075 -17 246 -17 c 0
 167 -17 98 19 47 81 c 1
 76 128 l 1
 129 52 200 35 247 35 c 0
 314 36 401 69 401 205 c 0
 401 344 325 371 277 371 c 0
 199 371 163 324 147 297 c 1
 91 297 l 1
 91 655 l 1
 437 655 l 1
 437 602 l 1
 152 602 l 1
 152 372 l 1
 184 400 221 421 278 422 c 0
 388 422 472 320 472 204 c 0
EndSplineSet
Substitution: 0 10 'onum' fiveoldstyle
EndChar
StartChar: six
Encoding: 54 54 27
Width: 525
Flags: W
TeX: 656 0 32767 32767
HStem: -17 52<222 264> 401 50<226.5 354> 622 50<237 350>
VStem: 54 71<181.5 408> 404 66<170 283>
Fore
264 -17 m 0
 180 -17 54 48 54 315 c 0
 54 501 138 589 187 625 c 0
 225 654 270 672 324 672 c 0
 376 672 408 662 437 653 c 1
 437 601 l 1
 399 614 371 622 324 622 c 0
 150 622 116 423 121 332 c 1
 156 408 231 451 305 451 c 0
 403 451 470 346 470 220 c 0
 470 120 431 76 409 51 c 0
 351 -14 296 -16 264 -17 c 0
124 217 m 1
 139 62 207 35 264 35 c 0
 300 36 339 42 372 86 c 0
 404 129 404 173 404 223 c 0
 404 275 400 294 394 311 c 0
 380 356 345 401 270 401 c 0
 183 401 125 325 125 243 c 0
 125 234 125 226 126 217 c 1
 124 217 l 1
EndSplineSet
Substitution: 0 10 'onum' sixoldstyle
EndChar
StartChar: seven
Encoding: 55 55 28
Width: 525
Flags: W
TeX: 656 0 32767 32767
HStem: -8 21G<170 237> 600 55<43 480>
Fore
170 -8 m 1
 170 211 258 435 437 600 c 1
 43 600 l 1
 43 655 l 1
 480 655 l 1
 480 602 l 1
 317 432 237 207 237 -8 c 1
 170 -8 l 1
EndSplineSet
Substitution: 0 10 'onum' sevenoldstyle
EndChar
StartChar: eight
Encoding: 56 56 29
Width: 525
Flags: W
TeX: 656 0 32767 32767
HStem: -17 52<210.5 322.5> 329 50<213.5 318.5> 622 50<202 319.5>
VStem: 43 66<139.5 215.5> 58 60<467 546.5> 405 61<476 526.5> 414 66<123.5 240.5>
Fore
43 181 m 0xf2
 43 250 87 321 195 354 c 1
 105 377 58 441 58 501 c 0
 58 592 145 672 262 672 c 0
 316 672 371 654 412 617 c 0
 443 588 466 548 466 502 c 0xec
 465 387 328 354 328 354 c 1
 416 332 479 263 480 181 c 0
 480 74 384 -17 261 -17 c 0
 211 -17 160.005 -0.993781 119 31 c 0
 69.0059 70.0076 43 127 43 181 c 0xf2
263 622 m 0
 141 622 118 547 118 501 c 0
 118 433 166 379 261 379 c 0
 376 379 405 451 405 501 c 0
 405 552 376 622 263 622 c 0
261 329 m 0
 200 329 110 301 109 181 c 0
 109 98 160 35 261 35 c 0
 326 35 414 65 414 182 c 0xf2
 414 299 323 329 261 329 c 0
EndSplineSet
Substitution: 0 10 'onum' eightoldstyle
EndChar
StartChar: nine
Encoding: 57 57 30
Width: 525
Flags: W
TeX: 656 0 32767 32767
HStem: -17 52<183 287.5> 204 51<170.5 298.5> 622 50<250.5 305>
VStem: 54 66<373 473> 400 70<234.5 476>
Fore
102 75 m 1
 117 65 151 35 215 35 c 0
 309 35 355 108 372 144 c 0
 406 217 404 311 404 324 c 1
 368 248 293 204 219 204 c 0
 122 204 54 308 54 438 c 0
 54 508 73 558 120 607 c 0
 179 671 236 672 265 672 c 0
 345 672 470 620 470 332 c 0
 470 137 359 -17 216 -17 c 0
 160 -16 123 -4 76 29 c 1
 102 75 l 1
255 255 m 0
 342 255 400 331 400 415 c 0
 400 423 400 430 399 438 c 1
 401 438 l 1
 391 591 319 622 265 622 c 0
 227 621 188 614 154 570 c 0
 121 526 120 482 120 432 c 0
 120 364 129 319 171 282 c 0
 182 272 207 255 255 255 c 0
EndSplineSet
Substitution: 0 10 'onum' nineoldstyle
EndChar
StartChar: colon
Encoding: 58 58 31
Width: 292
Flags: W
TeX: 472 0 32767 32767
HStem: 0 78<106 184> 394 78<106 184>
VStem: 106 78<0 78 394 472>
Fore
106 472 m 1
 184 472 l 1
 184 394 l 1
 106 394 l 1
 106 472 l 1
106 78 m 1
 184 78 l 1
 184 0 l 1
 106 0 l 1
 106 78 l 1
EndSplineSet
EndChar
StartChar: semicolon
Encoding: 59 59 32
Width: 292
Flags: W
TeX: 472 111 32767 32767
HStem: 0 78<106 185> 394 78<106 184>
VStem: 106 78<0 0 394 472>
Fore
106 78 m 1
 185 78 l 1
 185 29 l 1
 184 0 l 1
 146 -111 l 1
 106 -111 l 1
 130 0 l 1
 106 0 l 1
 106 78 l 1
106 472 m 1
 184 472 l 1
 184 394 l 1
 106 394 l 1
 106 472 l 1
EndSplineSet
EndChar
StartChar: less
Encoding: 60 60 33
Width: 642
Flags: W
TeX: 552 25 32767 32767
Fore
159 264 m 1
 179 252 198 239 217 226 c 2
 528 25 l 2
 539 19 553 11 553 -5 c 0
 553 -18 542 -30 529 -30 c 0
 517 -30 507 -21 494 -13 c 2
 113 233 l 2
 83 253 90 258 88 264 c 1
 89 277 92 281 113 295 c 2
 509 551 l 2
 519 557 524 558 529 558 c 0
 542 558 553 547 553 533 c 0
 553 517 538 509 528 503 c 2
 217 302 l 2
 198 289 179 276 159 265 c 1
 159 264 l 1
EndSplineSet
EndChar
StartChar: equal
Encoding: 61 61 34
Width: 642
Flags: W
TeX: 380 -147 32767 32767
HStem: 142 50<76.5 552> 336 50<80 565.5>
Fore
582 360 m 0
 581 333 555 336 537 336 c 2
 92 336 l 2
 61 336 59 354 59 360 c 0
 59 371 66 383 80 386 c 1
 552 386 l 2
 579 386 582 368 582 360 c 0
59 166 m 0
 59 194 87 192 98 192 c 2
 552 192 l 2
 579 192 582 174 582 166 c 0
 581 143 562 142 537 142 c 2
 92 142 l 2
 61 142 59 159 59 166 c 0
EndSplineSet
EndChar
StartChar: greater
Encoding: 62 62 35
Width: 642
Flags: W
TeX: 552 25 32767 32767
Fore
482 265 m 1
 462 276 443.015 289.023 423 302 c 2
 113 503 l 2
 102.06 510.093 88 517 88 533 c 0
 88 547 99 558 112 558 c 0
 119 558 125 555 132 551 c 2
 527 295 l 2
 557.958 274.936 551 270 553 264 c 1
 552 251 548.883 247.182 527 233 c 2
 132 -23 l 2
 121 -29 117 -30 112 -30 c 0
 99 -30 88 -18 88 -5 c 0
 88 11 102 19 113 25 c 2
 423 226 l 2
 443.015 238.977 462 252 482 264 c 1
 482 265 l 1
EndSplineSet
EndChar
StartChar: question
Encoding: 63 63 36
Width: 496
Flags: W
TeX: 694 0 32767 32767
HStem: 0 78<194 272> 652 51<201 323.5>
VStem: 194 78<0 78> 202 62<177 230.5> 373 64<512.5 601.5>
Fore
194 78 m 1xe8
 272 78 l 1
 272 0 l 1
 194 0 l 1
 194 78 l 1xe8
373 555 m 0
 373 648 290 652 240 652 c 0
 164 652 119 628 77 597 c 1
 58 650 l 1
 110 683 165 703 237 703 c 0
 410 703 437 603 437 553 c 0
 437 472 379 439 364 426 c 0
 264.329 339.619 264 248 264 213 c 2
 264 177 l 1
 202 177 l 1xd8
 202 239 192 369 328 473 c 0
 343 485 373 506 373 555 c 0
EndSplineSet
EndChar
StartChar: at
Encoding: 64 64 37
Width: 700
Flags: W
TeX: 694 0 32767 32767
HStem: -8 50<312.5 447.5> 124 51<400 483> 520 50<416.524 472.5> 652 51<332 522>
VStem: 58 61<248 450.5> 261 61<282.5 396.663> 580 61<266.5 407.5>
Fore
559 531 m 1
 527 624 466 652 406 652 c 0
 258 652 119 523 119 347 c 0
 119 188 239 42 411 42 c 0
 511 43 574 79 587 82 c 0
 594 84 601 83 608 83 c 2
 641 83 l 1
 574 20 486 -8 409 -8 c 0
 216 -8 58 149 58 347 c 0
 58 554 220 689 381 702 c 0
 389 702 398 703 407 703 c 0
 637 703 641 457 641 358 c 0
 641 175 512 124 452 124 c 0
 348 124 261 222 261 347 c 0
 261 410 283.129 473.866 329 518 c 0
 360.087 547.909 402 570 451 570 c 0
 494 570 529 554 559 531 c 1
451 520 m 0
 382.049 520 322 445.325 322 348 c 0
 322 217 410 175 450 175 c 0
 516 175 580 243 580 347 c 0
 580 374 574.866 408.934 558 443 c 0
 532.8 493.901 492 520 451 520 c 0
EndSplineSet
EndChar
StartChar: A
Encoding: 65 65 38
AltUni: 913 1040
Width: 675
Flags: W
TeX: 694 0 32767 32767
HStem: 0 21G<29 94 572 645> 210 53<174 491> 683 20G<299 375>
Fore
174 210 m 1
 94 0 l 1
 29 0 l 1
 299 703 l 1
 375 703 l 1
 645 0 l 1
 572 0 l 1
 491 210 l 1
 174 210 l 1
333 630 m 1
 195 263 l 1
 471 263 l 1
 349 585 l 1
 333 630 l 1
EndSplineSet
KernsSLIFO: 60 -117 0 0 59 -117 0 0 62 -87 0 0 57 -87 0 0 58 -29 0 0 52 -29 0 0 54 -29 0 0 44 -29 0 0 40 -29 0 0 89 -29 0 0 86 -29 0 0 84 -29 0 0 74 -29 0 0 73 -29 0 0 72 -29 0 0 92 -29 0 0 91 -29 0 0 94 -29 0 0
EndChar
StartChar: B
Encoding: 66 66 39
AltUni: 1042 914
Width: 687
Flags: W
TeX: 694 0 32767 32767
HStem: 0 53<99 369.5> 336 50<166 317> 641 54<99 320.5>
VStem: 99 67<0 695> 534 65<502 546> 562 66<158 232>
Fore
599 521 m 0xf8
 599 490 584 402 417 363 c 1
 538 347 628 275 628 189 c 0xf4
 628 131 591 79 536 45 c 0
 463 0 389 0 350 0 c 2
 99 0 l 1
 99 695 l 1
 284 695 l 2
 357 695 425 697 500 656 c 0
 566 621 599 571 599 521 c 0xf8
167 641 m 1
 166 605 l 1
 166 386 l 1
 273 386 l 2
 342 386 408 388 474 429 c 0
 513 454 534 486 534 518 c 0xf8
 534 554 506 588 465 607 c 0
 398 639 358 641 276 641 c 2
 167 641 l 1
167 336 m 1
 166 297 l 1
 166 53 l 1
 299 53 l 2
 359 53 418 52 484 86 c 0
 498 93 562 127 562 189 c 0xf4
 562 233 531 271 482 299 c 0
 414 336 350 336 284 336 c 2
 167 336 l 1
EndSplineSet
EndChar
StartChar: C
Encoding: 67 67 40
AltUni: 1057
Width: 671
Flags: W
TeX: 694 0 32767 32767
HStem: -17 53<313.5 470> 658 53<340 449.5>
VStem: 81 70<252.5 387>
Fore
412 36 m 0
 528 36 570 71 612 97 c 1
 617 39 l 1
 541 -4 505 -16 413 -17 c 0
 214 -17 81 158 81 347 c 0
 81 427 105 507 151 573 c 0
 213 660 307 711 410 711 c 0
 489 711 542 699 606 677 c 1
 593 608 l 1
 537 637 498 657 411 658 c 0
 269 658 152 525 151 347 c 0
 151 185 257 36 412 36 c 0
EndSplineSet
EndChar
StartChar: D
Encoding: 68 68 41
Width: 746
Flags: W
TeX: 694 0 32767 32767
HStem: 0 53<98 356.5> 641 54<98 445>
VStem: 98 69<0 695> 618 69<244.5 431.054>
Fore
98 695 m 1
 346 695 l 2
 365 695 383 695 402 692 c 0
 563.622 672.29 687 520.108 687 342 c 0
 687 147 543 18 400 2 c 0
 382 0 365 0 348 0 c 2
 98 0 l 1
 98 695 l 1
618 342 m 0
 618 471 555 641 335 641 c 2
 167 641 l 1
 167 53 l 1
 298 53 l 2
 366 53 424 51 492 91 c 0
 540 120 618 192 618 342 c 0
EndSplineSet
KernsSLIFO: 62 -29 0 0 59 -29 0 0 38 -29 0 0 60 -29 0 0 61 -29 0 0
EndChar
StartChar: E
Encoding: 69 69 42
AltUni: 1045 917
Width: 625
Flags: W
TeX: 694 0 32767 32767
HStem: 0 56<98 581> 334 53<168 537> 640 53<98 566>
VStem: 98 70<0 693>
Fore
98 693 m 1
 566 693 l 1
 566 640 l 1
 168 640 l 1
 168 387 l 1
 537 387 l 1
 537 334 l 1
 168 334 l 1
 168 56 l 1
 581 56 l 1
 581 0 l 1
 98 0 l 1
 98 693 l 1
EndSplineSet
EndChar
StartChar: F
Encoding: 70 70 43
Width: 596
Flags: W
TeX: 694 0 32767 32767
HStem: 0 21G<98 168> 320 53<168 508> 640 53<98 552>
VStem: 98 70<0 693>
Fore
98 693 m 1
 552 693 l 1
 552 640 l 1
 168 640 l 1
 168 373 l 1
 508 373 l 1
 508 320 l 1
 168 320 l 1
 168 0 l 1
 98 0 l 1
 98 693 l 1
EndSplineSet
KernsSLIFO: 54 -29 0 0 44 -29 0 0 40 -29 0 0 52 -29 0 0 38 -87 0 0 95 -29 0 0 92 -29 0 0 85 -29 0 0 83 -29 0 0 82 -29 0 0 76 -29 0 0 73 -29 0 0 72 -29 0 0 88 -29 0 0 91 -29 0 0 87 -29 0 0 90 -29 0 0 94 -29 0 0 74 -29 0 0 70 -29 0 0 84 -29 0 0
EndChar
StartChar: G
Encoding: 71 71 44
Width: 700
Flags: W
TeX: 694 0 32767 32767
HStem: -17 53<336 453.5> 275 53<407 629> 658 53<313.5 454.5>
VStem: 81 70<248 442> 564 65<32 328>
Fore
81 347 m 0
 81 537 215 711 412 711 c 0
 496 711 552 695 620 663 c 1
 608 594 l 1
 541 637 495 658 414 658 c 0
 256 658 151 510 151 347 c 0
 152 181 257 36 415 36 c 0
 490 36 561 62 564 63 c 1
 564 275 l 1
 407 275 l 1
 407 328 l 1
 629 328 l 1
 629 32 l 1
 570 5 497 -17 410 -17 c 0
 223 -16 81 149 81 347 c 0
EndSplineSet
EndChar
StartChar: H
Encoding: 72 72 45
AltUni: 1053 919
Width: 708
Flags: W
TeX: 694 0 32767 32767
HStem: 0 21G<98 168 539 609> 335 53<168 539> 675 20G<98 168 539 609>
VStem: 98 70<0 695> 539 70<0 695>
Fore
98 695 m 1
 168 695 l 1
 168 388 l 1
 539 388 l 1
 539 695 l 1
 609 695 l 1
 609 0 l 1
 539 0 l 1
 539 335 l 1
 168 335 l 1
 168 0 l 1
 98 0 l 1
 98 695 l 1
EndSplineSet
EndChar
StartChar: I
Encoding: 73 73 46
AltUni: 1030 921
Width: 267
Flags: W
TeX: 694 0 32767 32767
HStem: 0 21G<98 168> 675 20G<98 168>
VStem: 98 70<0 695>
Fore
98 695 m 1
 168 695 l 1
 168 0 l 1
 98 0 l 1
 98 695 l 1
EndSplineSet
KernsSLIFO: 46 29 0 0
EndChar
StartChar: J
Encoding: 74 74 47
AltUni: 1032
Width: 483
Flags: W
TeX: 694 0 32767 32767
HStem: -17 52<169 238> 675 20G<339 408>
VStem: 339 69<139.5 695>
Fore
54 88 m 1
 99 55 138 35 200 35 c 0
 247 35 288 49 312 75 c 0
 334 97 339 122 339 157 c 2
 339 695 l 1
 408 695 l 1
 408 174 l 2
 408 138 409 104 390 67 c 0
 348 -14 253 -17 223 -17 c 0
 151 -17 90 3 43 25 c 1
 54 88 l 1
EndSplineSet
EndChar
StartChar: K
Encoding: 75 75 48
AltUni: 1050 922
Width: 704
Flags: W
TeX: 694 0 32767 32767
HStem: 0 21G<100 166 584 660> 675 20G<100 166 564 645>
VStem: 100 66<0 695>
Fore
320 375 m 1
 166 224 l 1
 166 0 l 1
 100 0 l 1
 100 695 l 1
 166 695 l 1
 166 305 l 1
 564 695 l 1
 645 695 l 1
 365 420 l 1
 660 0 l 1
 584 0 l 1
 320 375 l 1
EndSplineSet
KernsSLIFO: 54 -29 0 0 44 -29 0 0 40 -29 0 0 84 -29 0 0 91 -29 0 0
EndChar
StartChar: L
Encoding: 76 76 49
Width: 567
Flags: W
TeX: 694 0 32767 32767
HStem: 0 53<98 523> 675 20G<98 168>
VStem: 98 70<0 695>
Fore
98 695 m 1
 168 695 l 1
 168 53 l 1
 523 53 l 1
 523 0 l 1
 98 0 l 1
 98 695 l 1
EndSplineSet
KernsSLIFO: 60 -117 0 0 59 -117 0 0 62 -87 0 0 57 -87 0 0
EndChar
StartChar: M
Encoding: 77 77 50
AltUni: 1052 924
Width: 883
Flags: W
TeX: 694 0 32767 32767
HStem: 0 21G<101 164 717 780> 675 20G<101 193 687 780>
VStem: 101 63<0 695> 717 63<0 695>
Fore
101 695 m 1
 193 695 l 1
 395 199 l 1
 441 81 l 1
 455 121 l 1
 687 695 l 1
 780 695 l 1
 780 0 l 1
 717 0 l 1
 717 630 l 1
 639 430 l 1
 470 17 l 1
 410 17 l 1
 200 534 l 1
 164 630 l 1
 164 0 l 1
 101 0 l 1
 101 695 l 1
EndSplineSet
EndChar
StartChar: N
Encoding: 78 78 51
AltUni: 925
Width: 708
Flags: W
TeX: 694 0 32767 32767
HStem: 0 21G<100 163 510 608> 675 20G<100 198 545 608>
VStem: 100 63<0 695> 545 63<0 695>
Fore
100 695 m 1
 198 695 l 1
 545 58 l 1
 545 695 l 1
 608 695 l 1
 608 0 l 1
 510 0 l 1
 163 637 l 1
 163 0 l 1
 100 0 l 1
 100 695 l 1
EndSplineSet
EndChar
StartChar: O
Encoding: 79 79 52
AltUni: 1054 927
Width: 783
Flags: W
TeX: 694 0 32767 32767
HStem: -17 53<301.5 467.5> 660 51<320.5 481>
VStem: 58 70<243 451> 654 70<311 449>
Fore
391 -17 m 0
 212 -17 58 140 58 346 c 0
 58 427 83 508 130 574 c 0
 191 657 287 711 391 711 c 0
 571 711 724 552 724 346 c 0
 724 276 700 100 527 15 c 0
 492 -2 445 -17 391 -17 c 0
391 36 m 0
 544 36 652 174 654 359 c 0
 654 528 555.977 618.927 468 647 c 0
 442.993 654.979 417 660 391 660 c 0
 250 660 128 543 128 359 c 0
 129 273 152 178 220 110 c 0
 265 64 327 36 391 36 c 0
EndSplineSet
KernsSLIFO: 62 -29 0 0 59 -29 0 0 38 -29 0 0 60 -29 0 0 61 -29 0 0
EndChar
StartChar: P
Encoding: 80 80 53
AltUni: 1056 929
Width: 658
Flags: W
TeX: 694 0 32767 32767
HStem: 0 21G<98 168> 295 52<167 325.5> 641 54<98 423.5>
VStem: 98 69<347 695> 533 66<456 537>
Fore
336 695 m 2
 511 695 598 594 599 495 c 0
 598 396 515.938 344.114 492 331 c 0
 417.806 290.353 349 295 302 295 c 2
 168 295 l 1
 168 0 l 1
 98 0 l 1
 98 695 l 1
 336 695 l 2
167 641 m 1
 167 347 l 1
 304 347 l 2
 342 347 393.934 345.154 445 367 c 0
 477.958 381.099 533 418 533 494 c 0
 533 580 465 633 363 640 c 0
 344 642 325 641 306 641 c 2
 167 641 l 1
EndSplineSet
KernsSLIFO: 17 -87 0 0 19 -87 0 0 70 -29 0 0 74 -29 0 0 84 -29 0 0 38 -87 0 0
EndChar
StartChar: Q
Encoding: 81 81 54
Width: 783
Flags: W
TeX: 694 111 32767 32767
HStem: -17 52<302 416> 659 52<314 481.5>
VStem: 58 69<243 443> 656 68<265.5 448.5>
Fore
613 -111 m 1
 513 8 l 1
 482 -5 440 -17 392 -17 c 0
 212 -17 58 140 58 346 c 0
 58 540 189 677 332 705 c 0
 351 709 371 711 391 711 c 0
 572 711 724 551 724 346 c 0
 724 213 659 98 566 37 c 1
 695 -111 l 1
 613 -111 l 1
428 195 m 1
 530 78 l 1
 571 107 656 185 656 346 c 0
 656 441 621.988 540.985 548 602 c 0
 507.993 634.992 454 659 391 659 c 0
 237 659 127 521 127 347 c 0
 128 189 208 85 311 49 c 0
 332 42 359 35 391 35 c 0
 425 35 451 42 476 50 c 1
 355 195 l 1
 428 195 l 1
EndSplineSet
EndChar
StartChar: R
Encoding: 82 82 55
Width: 671
Flags: W
TeX: 694 0 32767 32767
HStem: 0 21G<98 167 571 641> 322 51<167 357> 641 54<98 336.5>
VStem: 98 69<0 695> 546 65<463.5 553.5>
Fore
611 507 m 0
 611 420 522 348 418 330 c 1
 641 0 l 1
 571 0 l 1
 355 322 l 1
 167 322 l 1
 167 0 l 1
 98 0 l 1
 98 695 l 1
 328 695 l 2
 345 695 363 694 381 693 c 0
 512 680 611 600 611 507 c 0
167 641 m 1
 167 373 l 1
 313 373 l 2
 401 373 450 382 493 411 c 0
 525 434 546 469 546 507 c 0
 545 570 497 602 478 612 c 0
 422 643 356 641 312 641 c 2
 167 641 l 1
EndSplineSet
EndChar
StartChar: S
Encoding: 83 83 56
AltUni: 1029
Width: 583
Flags: W
TeX: 694 0 32767 32767
HStem: -17 57<240.5 358.5> 656 55<219 339>
VStem: 57 64<500 563.5> 460 64<134.5 217.5>
Fore
294 656 m 0
 193 656 121 598 121 529 c 0
 121 471 173 432 215 417 c 0
 248 404 346 387 381 374 c 0
 447 349 500.72 297.927 518 232 c 0
 521.936 216.983 524 202 524 187 c 0
 524 82 428 -17 289 -17 c 0
 192 -17 111 14 46 53 c 1
 58 122 l 1
 125 73 194 40 288 40 c 0
 394 40 460 109 460 180 c 0
 460 255 393 294 363 306 c 0
 285 336 158 329 87 429 c 0
 70 453 57 485 57 522 c 0
 58 615 145 711 293 711 c 0
 385 711 438 687 486 663 c 1
 474 594 l 1
 413 636 373 656 294 656 c 0
EndSplineSet
EndChar
StartChar: T
Encoding: 84 84 57
AltUni: 1058 932
Width: 725
Flags: W
TeX: 694 0 32767 32767
HStem: 0 21G<327 397> 639 53<37 686>
VStem: 327 70<0 639>
Fore
37 692 m 1
 686 692 l 1
 686 639 l 1
 397 639 l 1
 397 0 l 1
 327 0 l 1
 327 639 l 1
 37 639 l 1
 37 692 l 1
EndSplineSet
KernsSLIFO: 38 -87 0 0 95 -87 0 0 93 -87 0 0 92 -87 0 0 91 -87 0 0 88 -87 0 0 85 -87 0 0 76 -87 0 0 73 -87 0 0 72 -87 0 0 83 -87 0 0 90 -87 0 0 70 -87 0 0 87 -87 0 0 84 -87 0 0 74 -87 0 0 94 -87 0 0
EndChar
StartChar: U
Encoding: 85 85 58
Width: 692
Flags: W
TeX: 694 0 32767 32767
HStem: -17 53<303.5 397.5> 675 20G<98 168 528 593>
VStem: 98 70<232 695> 528 65<210 695>
Fore
98 695 m 1
 168 695 l 1
 168 257 l 2
 168 207 169.093 155.064 202 107 c 0
 217.042 85.0291 260 36 347 36 c 0
 448 36 519 102 528 210 c 1
 528 695 l 1
 593 695 l 1
 593 265 l 2
 593 218 594 183 573 133 c 0
 529.756 32.9992 433.571 -17 347 -17 c 0
 287 -17 227 6 181 46 c 0
 90 127 98 230 98 257 c 2
 98 695 l 1
EndSplineSet
EndChar
StartChar: V
Encoding: 86 86 59
Width: 675
Flags: W
TeX: 694 0 32767 32767
HStem: -5 21G<298 376> 675 20G<14 88 593 659>
Fore
14 695 m 1
 88 695 l 1
 327 101 l 1
 340 65 l 1
 427 285 l 1
 593 695 l 1
 659 695 l 1
 376 -5 l 1
 298 -5 l 1
 14 695 l 1
EndSplineSet
KernsSLIFO: 54 -29 0 0 44 -29 0 0 40 -29 0 0 52 -29 0 0 38 -87 0 0 95 -29 0 0 92 -29 0 0 85 -29 0 0 83 -29 0 0 82 -29 0 0 76 -29 0 0 73 -29 0 0 72 -29 0 0 88 -29 0 0 91 -29 0 0 87 -29 0 0 90 -29 0 0 94 -29 0 0 74 -29 0 0 70 -29 0 0 84 -29 0 0
Position: 0 0 'ITLC' dx=0 dy=0 dh=14 dv=0
EndChar
StartChar: W
Encoding: 87 87 60
Width: 967
Flags: W
TeX: 694 0 32767 32767
HStem: -5 21G<226 296 667 739> 675 20G<14 82 449 519 890 951>
Fore
14 695 m 1
 82 695 l 1
 209 271 l 2
 243 153 258 104 266 65 c 1
 276 108 l 1
 330 296 l 1
 449 695 l 1
 519 695 l 1
 629 333 l 2
 683 147 696 107 705 65 c 1
 713 107 741 194 768 288 c 2
 890 695 l 1
 951 695 l 1
 739 -5 l 1
 667 -5 l 1
 514 506 l 1
 486 605 l 1
 481 630 l 1
 473 592 l 1
 422 416 l 1
 296 -5 l 1
 226 -5 l 1
 14 695 l 1
EndSplineSet
KernsSLIFO: 54 -29 0 0 44 -29 0 0 40 -29 0 0 52 -29 0 0 38 -87 0 0 95 -29 0 0 92 -29 0 0 85 -29 0 0 83 -29 0 0 82 -29 0 0 76 -29 0 0 73 -29 0 0 72 -29 0 0 88 -29 0 0 91 -29 0 0 87 -29 0 0 90 -29 0 0 94 -29 0 0 74 -29 0 0 70 -29 0 0 84 -29 0 0
Position: 0 0 'ITLC' dx=0 dy=0 dh=14 dv=0
EndChar
StartChar: X
Encoding: 88 88 61
AltUni: 1061 935
Width: 675
Flags: W
TeX: 694 0 32767 32767
HStem: 0 21G<14 95 574 659> 675 20G<29 114 535 615>
Fore
29 695 m 1
 114 695 l 1
 329 420 l 1
 535 695 l 1
 615 695 l 1
 365 366 l 1
 659 0 l 1
 574 0 l 1
 329 318 l 1
 95 0 l 1
 14 0 l 1
 293 367 l 1
 29 695 l 1
EndSplineSet
KernsSLIFO: 54 -29 0 0 44 -29 0 0 40 -29 0 0 52 -29 0 0
EndChar
StartChar: Y
Encoding: 89 89 62
Width: 675
Flags: W
TeX: 694 0 32767 32767
HStem: 0 21G<302 371> 675 20G<2 87 595 671>
VStem: 302 69<0 278>
Fore
2 695 m 1
 87 695 l 1
 341 342 l 1
 595 695 l 1
 671 695 l 1
 371 278 l 1
 371 0 l 1
 302 0 l 1
 302 278 l 1
 2 695 l 1
EndSplineSet
KernsSLIFO: 38 -87 0 0 95 -87 0 0 93 -87 0 0 92 -87 0 0 91 -87 0 0 88 -87 0 0 85 -87 0 0 76 -87 0 0 73 -87 0 0 72 -87 0 0 83 -87 0 0 90 -87 0 0 70 -87 0 0 87 -87 0 0 84 -87 0 0 74 -87 0 0
Position: 0 0 'ITLC' dx=0 dy=0 dh=26 dv=0
EndChar
StartChar: Z
Encoding: 90 90 63
AltUni: 918
Width: 642
Flags: W
TeX: 694 0 32767 32767
HStem: 0 53<58 589> 643 52<73 583>
Fore
73 695 m 1
 583 695 l 1
 583 660 l 1
 152 53 l 1
 589 53 l 1
 589 0 l 1
 58 0 l 1
 58 36 l 1
 489 643 l 1
 73 643 l 1
 73 695 l 1
EndSplineSet
EndChar
StartChar: bracketleft
Encoding: 91 91 64
Width: 294
Flags: W
TeX: 750 222 32767 32767
HStem: -222 50<113 270> 700 50<113 270>
VStem: 113 157<-222 750>
Fore
113 750 m 1
 270 750 l 1
 270 700 l 1
 176 700 l 1
 176 -172 l 1
 270 -172 l 1
 270 -222 l 1
 113 -222 l 1
 113 750 l 1
EndSplineSet
EndChar
StartChar: backslash
Encoding: 92 92 65
Width: 525
Flags: W
TeX: 750 222 32767 32767
Fore
80 749 m 1
 87 749 l 1
 105 745 109 729 115 712 c 2
 457 -169 l 2
 461 -178 465 -187 465 -197 c 0
 465 -223 439 -221 438 -221 c 0
 418 -218 414 -195 407 -179 c 2
 64 705 l 2
 61 711 59 718 59 724 c 0
 59 736 68 747 80 749 c 1
EndSplineSet
EndChar
StartChar: bracketright
Encoding: 93 93 66
Width: 294
Flags: W
TeX: 750 222 32767 32767
HStem: -222 50<23 180> 700 50<23 180>
VStem: 23 157<-222 750>
Fore
23 750 m 1
 180 750 l 1
 180 -222 l 1
 23 -222 l 1
 23 -172 l 1
 117 -172 l 1
 117 700 l 1
 23 700 l 1
 23 750 l 1
EndSplineSet
EndChar
StartChar: asciicircum
Encoding: 94 94 67
Width: 642
Flags: W
TeX: 694 0 32767 32767
HStem: 472 21G<138 188 453 503>
Fore
138 472 m 1
 295 620 l 1
 346 620 l 1
 503 472 l 1
 453 472 l 1
 320 591 l 1
 188 472 l 1
 138 472 l 1
EndSplineSet
EndChar
StartChar: underscore
Encoding: 95 95 68
Width: 817
Flags: W
TeX: 0 263 32767 32767
HStem: -264 40<122 707.5>
Fore
728 -244 m 0
 728 -260 715 -264 700 -264 c 2
 122 -264 l 2
 102 -264 87 -261 88 -243 c 1
 92 -223 107 -224 123 -224 c 2
 693 -224 l 2
 707 -224 728 -222 728 -244 c 0
EndSplineSet
EndChar
StartChar: quoteleft
Encoding: 8216 8216 69
Width: 292
Flags: W
TeX: 694 0 32767 32767
HStem: 505 79<106 184> 675 20G<145 185>
VStem: 106 78<505 555>
Fore
145 695 m 1
 185 695 l 1
 161 584 l 1
 184 584 l 1
 184 505 l 1
 106 505 l 1
 106 555 l 1
 107 584 l 1
 145 695 l 1
EndSplineSet
KernsSLIFO: 6 117 1 0 36 117 1 0 1 117 1 0
EndChar
StartChar: a
Encoding: 97 97 70
AltUni: 1072
Width: 492
Flags: W
TeX: 472 0 32767 32767
HStem: -8 50<122 220> 438 47<202.5 294.5>
VStem: 55 62<94.5 152> 346 65<154.5 301 265 301>
Fore
167 -8 m 0
 77 -8 55 76 55 115 c 0
 55 175 108 260 346 265 c 1
 346 307 l 2
 346 343 343 374 319 403 c 0
 299 427 274 438 245 438 c 0
 160 438 110 401 87 386 c 1
 82 442 l 1
 135 470 182 485 248 485 c 0
 341 485 391 417 405 368 c 0
 413 337 410 318 411 301 c 2
 411 -0 l 1
 348 -0 l 1
 348 69 l 1
 297 6 221 -8 167 -8 c 0
117 117 m 0
 117 72 163 42 220 42 c 0
 297 43 339 84 345 125 c 0
 347 137 346 149 346 160 c 2
 346 234 l 1
 212 233 117 187 117 117 c 0
EndSplineSet
KernsSLIFO: 92 -29 0 0 94 -29 0 0 87 -29 0 0
EndChar
StartChar: b
Encoding: 98 98 71
Width: 517
Flags: W
TeX: 694 0 32767 32767
HStem: -8 50<218 302.5> 430 50<220.5 340> 675 20G<80 143>
VStem: 80 65<0 346> 405 64<158 243>
Fore
143 405 m 1
 182 451 234 480 293 480 c 0
 387 480 456.703 383.971 468 268 c 0
 468.974 257.997 469 248 469 238 c 0
 469 178 453 119 418 71 c 0
 383 24 331 -8 274 -8 c 0
 244 -8 190 1 145 66 c 1
 145 0 l 1
 80 0 l 1
 80 695 l 1
 143 695 l 1
 143 405 l 1
405 236 m 0
 404 412 296 430 255 430 c 0
 186 430 150 376 146 362 c 0
 144 356 145 349 145 343 c 2
 145 145 l 2
 145 119 142 114 159 89 c 0
 168 75 193 42 243 42 c 0
 309 43 405 80 405 236 c 0
EndSplineSet
KernsSLIFO: 92 -29 0 0 94 -29 0 0 87 -29 0 0 93 -29 0 0
EndChar
StartChar: c
Encoding: 99 99 72
AltUni: 1089
Width: 467
Flags: W
TeX: 472 0 32767 32767
HStem: -8 52<201.5 298.5> 433 52<201 306.5>
VStem: 46 65<170.5 301.5>
Fore
265 44 m 0
 332 45 376 63 432 111 c 1
 437 55 l 1
 385 14 333 -8 264 -8 c 0
 139 -8 46 104 46 237 c 0
 46 366 135 485 267 485 c 0
 346 485 379 470 431 442 c 1
 421 387 l 1
 371 417 345 433 265 433 c 0
 174 433 111 357 111 237 c 0
 111 109 184 44 265 44 c 0
EndSplineSet
EndChar
StartChar: d
Encoding: 100 100 73
Width: 517
Flags: W
TeX: 694 0 32767 32767
HStem: -8 50<205.5 270.5> 430 50<230.5 298.5> 675 20G<372 435>
VStem: 46 65<147.5 314.5> 371 64<0 352>
Fore
235 480 m 0
 280 480 328 464 372 410 c 1
 372 695 l 1
 435 695 l 1
 435 0 l 1
 371 0 l 1
 371 42 l 1
 370 73 l 1
 335 21 282 -8 230 -8 c 0
 181 -8 132 16 95 68 c 0
 57 122 46 186 46 236 c 0
 46 367 121 457 201 476 c 0
 214 480 226 480 235 480 c 0
272 430 m 0
 208 430 111 393 111 236 c 0
 111 59 224 42 260 42 c 0
 281 42 320 47 353 91 c 0
 368 115 371 113 371 141 c 2
 371 352 l 2
 371 389 325 430 272 430 c 0
EndSplineSet
EndChar
StartChar: e
Encoding: 101 101 74
AltUni: 1077
Width: 467
Flags: W
TeX: 472 0 32767 32767
HStem: -8 50<202 310.5> 250 40<102 433> 434 50<248 300.5>
VStem: 42 60<170 263.5>
Fore
102 250 m 1
 99 120 181 42 264 42 c 0
 357 42 415 101 426 111 c 1
 431 56 l 1
 385 18 330 -8 263 -8 c 0
 141 -8 42 100 42 240 c 0
 42 287 53 333 76 374 c 0
 91 402 144 483 248 484 c 0
 319 484 433 448 433 250 c 1
 102 250 l 1
379 290 m 1
 375 330 353 434 248 434 c 0
 173 433 121 364 107 290 c 1
 379 290 l 1
EndSplineSet
KernsSLIFO: 59 -87 0 0
EndChar
StartChar: f
Encoding: 102 102 75
Width: 321
Flags: W
TeX: 694 0 32767 32767
HStem: 0 21G<113 177> 422 50<28 113 175 300> 652 51<255 295.5>
VStem: 113 64<0 422>
Fore
278 652 m 0
 240 652 175 638 175 580 c 2
 175 472 l 1
 300 472 l 1
 300 422 l 1
 177 422 l 1
 177 0 l 1
 113 0 l 1
 113 422 l 1
 28 422 l 1
 28 472 l 1
 113 472 l 1
 113 536 l 2
 114 566 109.157 617.808 167 665 c 0
 195.076 687.907 231 703 279 703 c 0
 312 703 341 699 363 695 c 1
 363 638 l 1
 335 647 313 652 278 652 c 0
EndSplineSet
KernsSLIFO: 66 73 0 0 14 73 0 0 6 73 0 0 36 73 0 0 2 73 0 0 1 73 0 0 69 73 0 0 12 73 0 0
Position: 0 0 'ITLC' dx=0 dy=0 dh=72 dv=0
EndChar
StartChar: g
Encoding: 103 103 76
Width: 517
Flags: W
TeX: 472 166 32767 32767
HStem: -184 50<217 300.5> 17 50<184.5 304> 430 50<216 290.5>
VStem: 46 65<171.5 291.5> 371 64<21 90>
Fore
72 -85 m 1
 131 -114 179 -134 255 -134 c 0
 346 -134 367 -43 369 -19 c 0
 371 0 371 19 371 38 c 2
 371 90 l 1
 370 125 l 1
 355 86 315 18 232 17 c 0
 137 17 46 106 46 237 c 0
 46 294 63.0463 361.96 109 415 c 0
 141.032 451.972 189 480 243 480 c 0
 317 480 354 426 372 393 c 1
 372 480 l 1
 435 480 l 1
 435 31 l 2
 435 11 445 -75 375 -139 c 0
 341 -171 301 -184 257 -184 c 0
 183 -184 130 -168 72 -139 c 1
 72 -85 l 1
111 237 m 0
 111 106 218 67 260 67 c 0
 348 67 370 172 371 250 c 1
 372 250 l 1
 372 301 l 2
 372 327 374 330 365 354 c 0
 344 410 309 430 272 430 c 0
 187 430 111 346 111 237 c 0
EndSplineSet
KernsSLIFO: 79 29 0 0
EndChar
StartChar: h
Encoding: 104 104 77
Width: 517
Flags: W
TeX: 694 0 32767 32767
HStem: 0 21G<80 145 371 435> 430 50<237 362.5> 675 20G<80 143>
VStem: 80 63<421 695> 371 64<0 344>
Fore
259 430 m 0
 215 430 145 406 145 262 c 2
 145 0 l 1
 80 0 l 1
 80 695 l 1
 143 695 l 1
 143 421 l 1
 144 378 l 1
 159 412 203 480 292 480 c 0
 433 480 435 373 435 315 c 2
 435 0 l 1
 371 0 l 1
 371 311 l 2
 371 377 354 430 259 430 c 0
EndSplineSet
EndChar
StartChar: i
Encoding: 105 105 78
Width: 225
Flags: W
TeX: 694 0 32767 32767
HStem: 0 21G<80 143> 452 20G<80 143> 631 63<80 143>
VStem: 80 63<0 472 631 694>
Fore
80 694 m 1
 143 694 l 1
 143 631 l 1
 80 631 l 1
 80 694 l 1
80 472 m 1
 143 472 l 1
 143 0 l 1
 80 0 l 1
 80 472 l 1
EndSplineSet
EndChar
StartChar: j
Encoding: 106 106 79
AltUni: 1112
Width: 254
Flags: W
TeX: 694 166 32767 32767
HStem: -175 53<6.5 70> 452 20G<110 174> 631 63<110 173>
VStem: 110 64<-97 472>
Fore
110 694 m 1
 173 694 l 1
 173 631 l 1
 110 631 l 1
 110 694 l 1
174 -45 m 2
 174 -149 93 -175 47 -175 c 0
 -1 -175 -41 -162 -76 -146 c 1
 -62 -95 l 1
 -35 -112 -11 -122 24 -122 c 0
 37 -122 49 -120 62 -116 c 0
 114 -100 110 -64 110 -55 c 2
 110 472 l 1
 174 472 l 1
 174 -45 l 2
EndSplineSet
EndChar
StartChar: k
Encoding: 107 107 80
Width: 487
Flags: W
TeX: 694 0 32767 32767
HStem: 0 21G<82 141 400 469> 452 20G<367 446> 675 20G<82 142>
VStem: 82 60<245 695>
Fore
228 252 m 1
 141 165 l 1
 141 0 l 1
 82 0 l 1
 82 695 l 1
 142 695 l 1
 142 245 l 1
 367 472 l 1
 446 472 l 1
 269 294 l 1
 469 0 l 1
 400 0 l 1
 228 252 l 1
EndSplineSet
KernsSLIFO: 72 -29 0 0 84 -29 0 0 70 -29 0 0 74 -29 0 0 59 -87 0 0 60 -87 0 0
EndChar
StartChar: l
Encoding: 108 108 81
Width: 225
Flags: W
TeX: 694 0 32767 32767
HStem: 0 21G<80 143> 675 20G<80 143>
VStem: 80 63<0 695>
Fore
80 695 m 1
 143 695 l 1
 143 0 l 1
 80 0 l 1
 80 695 l 1
EndSplineSet
EndChar
StartChar: m
Encoding: 109 109 82
Width: 808
Flags: W
TeX: 472 0 32767 32767
HStem: -0 21G<80 145 371 436 663 727> 430 50<236 361 527.5 655>
VStem: 80 62<375 472> 371 65<-0 344.5> 663 64<-0 344.5>
Fore
259 430 m 0
 213 430 142 398 145 262 c 2
 145 -0 l 1
 80 -0 l 1
 80 472 l 1
 142 472 l 1
 142 375 l 1
 158 411 203 480 293 480 c 0
 429 480 429 373 433 373 c 1
 449 411 493 480 584 480 c 0
 726 480 727 371 727 315 c 2
 727 -0 l 1
 663 -0 l 1
 663 311 l 2
 663 378 646 430 550 430 c 0
 505 430 433 398 436 262 c 2
 436 -0 l 1
 371 -0 l 1
 371 311 l 2
 371 378 355 430 259 430 c 0
EndSplineSet
EndChar
StartChar: n
Encoding: 110 110 83
Width: 517
Flags: W
TeX: 472 0 32767 32767
HStem: -0 21G<80 145 371 435> 430 50<237 362.5>
VStem: 80 62<375 472> 371 64<-0 344>
Fore
259 430 m 0
 215 430 145 406 145 262 c 2
 145 -0 l 1
 80 -0 l 1
 80 472 l 1
 142 472 l 1
 142 375 l 1
 158 411 202 480 292 480 c 0
 433 480 435 372 435 315 c 2
 435 -0 l 1
 371 -0 l 1
 371 311 l 2
 371 377 354 430 259 430 c 0
EndSplineSet
EndChar
StartChar: o
Encoding: 111 111 84
AltUni: 1086
Width: 525
Flags: W
TeX: 472 0 32767 32767
HStem: -8 52<203 297> 434 51<230.5 322>
VStem: 40 65<164.5 321> 419 64<167.5 320.5>
Fore
262 -8 m 0
 144 -8 40 95 40 236 c 0
 40 334 93 427 179 466 c 0
 200 476 229 485 262 485 c 0
 382 485 483 375 483 236 c 0
 483 141 435 54 353 13 c 0
 324 -0 296 -8 262 -8 c 0
262 434 m 0
 199 434 105 397 105 245 c 0
 105 84 199 44 262 44 c 0
 332 44 419 90 419 245 c 0
 419 396 324 434 262 434 c 0
EndSplineSet
KernsSLIFO: 92 -29 0 0 94 -29 0 0 87 -29 0 0 93 -29 0 0
EndChar
StartChar: p
Encoding: 112 112 85
AltUni: 1088
Width: 517
Flags: W
TeX: 472 166 32767 32767
HStem: -167 21G<80 145> -8 50<214.5 320> 429 51<232 339>
VStem: 80 63<404 472> 405 64<160 279.5>
Fore
273 -8 m 0
 192 -8 152 57 145 66 c 1
 145 -167 l 1
 80 -167 l 1
 80 472 l 1
 143 472 l 1
 143 404 l 1
 196 467 256 480 295 480 c 0
 383 480 427.983 397.992 442 368 c 0
 463.973 320.987 469 273 469 238 c 0
 469 82 367 -8 273 -8 c 0
145 130 m 2
 145 90 187 42 242 42 c 0
 326 42 405 123 405 237 c 0
 405 322 360 399 293 422 c 0
 279 427 265 429 253 429 c 0
 211 429 179 405 165 389 c 0
 141 363 145 353 145 342 c 2
 145 130 l 2
EndSplineSet
KernsSLIFO: 92 -29 0 0 94 -29 0 0 87 -29 0 0 93 -29 0 0
EndChar
StartChar: q
Encoding: 113 113 86
Width: 517
Flags: W
TeX: 472 166 32767 32767
HStem: -167 21G<371 435> -8 50<181.5 292.5> 429 51<222.5 303.5>
VStem: 46 65<166 296.5> 371 64<-167 42>
Fore
240 480 m 0
 331 480 365 403 372 393 c 1
 372 480 l 1
 435 480 l 1
 435 -167 l 1
 371 -167 l 1
 371 42 l 1
 370 77 l 1
 357 55 315 -7 231 -8 c 0
 132 -8 46 97 46 235 c 0
 46 306 71 385 129 435 c 0
 165 467 205 480 240 480 c 0
372 315 m 2
 370 366 336 429 271 429 c 0
 199 429 111 358 111 235 c 0
 111 202 116.044 178.016 126 151 c 0
 137.049 121.018 181 42 261 42 c 0
 324 42 372 101 372 149 c 2
 372 315 l 2
EndSplineSet
EndChar
StartChar: r
Encoding: 114 114 87
Width: 346
Flags: W
TeX: 472 0 32767 32767
HStem: 0 21G<80 143> 452 20G<80 140>
VStem: 80 60<396 472>
Fore
141 349 m 1
 160 394 215 478 330 480 c 1
 330 424 l 1
 220 421 158 345 146 280 c 0
 143 263 143 246 143 229 c 2
 143 0 l 1
 80 0 l 1
 80 472 l 1
 140 472 l 1
 140 396 l 1
 141 349 l 1
EndSplineSet
Position: 0 0 'ITLC' dx=0 dy=0 dh=14 dv=0
EndChar
StartChar: s
Encoding: 115 115 88
AltUni: 1109
Width: 402
Flags: W
TeX: 472 0 32767 32767
HStem: -8 52<172 278> 435 50<135 241.5>
VStem: 35 58<337.5 377> 320 58<104.5 170.5>
Fore
39 97 m 1
 93 63 139 44 207 44 c 0
 309 45 320 103 320 126 c 0
 320 157 298 188 251 203 c 0
 197.067 220.213 109 216 58 284 c 0
 44 303 35 323 35 352 c 0
 35 402 62 485 208 485 c 0
 275 485 314 472 360 451 c 1
 350 396 l 1
 297 423 261 435 198 435 c 0
 103 435 93 379 93 360 c 0
 94 278 217 284 275 263 c 0
 312 249 378 209 378 132 c 0
 378 77 348 -8 208 -8 c 0
 136 -8 79 11 29 39 c 1
 39 97 l 1
EndSplineSet
EndChar
StartChar: t
Encoding: 116 116 89
Width: 379
Flags: W
TeX: 607 0 32767 32767
HStem: -8 52<182.5 233> 422 50<19 115 176 331>
VStem: 114 62<125.5 422>
Fore
233 44 m 0
 295 45 325 78 336 85 c 1
 349 36 l 1
 307 10 258 -8 197 -8 c 0
 168 -8 139 5 123 52 c 0
 114 81 114 111 114 141 c 2
 114 422 l 1
 19 422 l 1
 19 472 l 1
 115 472 l 1
 115 607 l 1
 176 607 l 1
 176 472 l 1
 331 472 l 1
 331 422 l 1
 176 422 l 1
 176 145 l 2
 176 106 180 44 233 44 c 0
EndSplineSet
KernsSLIFO: 92 -29 0 0 94 -29 0 0
EndChar
StartChar: u
Encoding: 117 117 90
Width: 517
Flags: W
TeX: 472 0 32767 32767
HStem: -8 47<149.5 250> 452 20G<80 145 371 435>
VStem: 80 65<89.5 472> 371 64<172 472>
Fore
145 135 m 2
 145 72 144 39 237 39 c 0
 263 39 320 45 354 105 c 0
 371 134 371 155 371 189 c 2
 371 472 l 1
 435 472 l 1
 435 0 l 1
 372 0 l 1
 372 86 l 1
 337 28 269 -8 196 -8 c 0
 103 -8 80 46 80 133 c 2
 80 472 l 1
 145 472 l 1
 145 135 l 2
EndSplineSet
KernsSLIFO: 92 -29 0 0
EndChar
StartChar: v
Encoding: 118 118 91
Width: 458
Flags: W
TeX: 472 0 32767 32767
HStem: -3 21G<191 265> 452 20G<14 78 380 443>
Fore
14 472 m 1
 78 472 l 1
 229 65 l 1
 380 472 l 1
 443 472 l 1
 265 -3 l 1
 191 -3 l 1
 14 472 l 1
EndSplineSet
Position: 0 0 'ITLC' dx=0 dy=0 dh=14 dv=0
EndChar
StartChar: w
Encoding: 119 119 92
Width: 692
Flags: W
TeX: 472 0 32767 32767
HStem: -3 21G<159 224 459 531> 452 20G<14 77 315 373 615 676>
Fore
341 408 m 1
 331 343 229 16 224 -3 c 1
 159 -3 l 1
 14 472 l 1
 77 472 l 1
 200 66 174 147 196 65 c 1
 200 94 219 149 237 214 c 2
 315 472 l 1
 373 472 l 1
 451 214 468 158 494 65 c 1
 510 124 l 1
 615 472 l 1
 676 472 l 1
 531 -3 l 1
 459 -3 l 1
 384 246 l 2
 356 343 347 375 341 408 c 1
EndSplineSet
KernsSLIFO: 72 -29 0 0 84 -29 0 0 70 -29 0 0 74 -29 0 0
Position: 0 0 'ITLC' dx=0 dy=0 dh=14 dv=0
EndChar
StartChar: x
Encoding: 120 120 93
AltUni: 1093
Width: 458
Flags: W
TeX: 472 0 32767 32767
HStem: 0 21G<0 71 386 458> 452 20G<6 78 369 440>
Fore
0 0 m 1
 197 243 l 1
 197 244 l 1
 6 472 l 1
 78 472 l 1
 226 289 l 1
 369 472 l 1
 440 472 l 1
 254 243 l 1
 458 0 l 1
 386 0 l 1
 226 207 l 1
 225 207 l 1
 71 0 l 1
 0 0 l 1
EndSplineSet
EndChar
StartChar: y
Encoding: 121 121 94
AltUni: 1091
Width: 458
Flags: W
TeX: 472 166 32767 32767
HStem: -175 51<90.5 149> 452 20G<14 79 380 443>
Fore
14 472 m 1
 79 472 l 1
 183 214 l 2
 218 120 227 97 234 65 c 1
 242 123 359 415 380 472 c 1
 443 472 l 1
 246 -39 l 2
 223.686 -96.88 190 -175 108 -175 c 0
 77 -175 45 -171 29 -168 c 1
 24 -112 l 1
 39 -116 74 -124 107 -124 c 0
 163 -124 179 -73 201 -16 c 0
 204 -8 205 -4 205 0 c 0
 205 6 203 10 199 20 c 2
 14 472 l 1
EndSplineSet
KernsSLIFO: 17 -87 0 0 19 -87 0 0 70 -29 0 0 74 -29 0 0 84 -29 0 0
Position: 0 0 'ITLC' dx=0 dy=0 dh=14 dv=0
EndChar
StartChar: z
Encoding: 122 122 95
Width: 450
Flags: W
TeX: 472 0 32767 32767
HStem: 0 50<29 423> 423 49<44 419>
Fore
44 472 m 1
 419 472 l 1
 419 439 l 1
 117 50 l 1
 423 50 l 1
 423 0 l 1
 29 0 l 1
 29 34 l 1
 332 423 l 1
 44 423 l 1
 44 472 l 1
EndSplineSet
EndChar
StartChar: braceleft
Encoding: 123 123 96
Width: 525
Flags: W
TeX: 750 222 32767 32767
VStem: 230 64<-92 117.5 341 620>
Fore
294 415 m 2
 294 267 123 264 123 264 c 1
 226 260 285.815 196.978 293 138 c 0
 293.975 129.997 294 122 294 113 c 2
 294 -92 l 2
 294 -118 292 -151 353 -165 c 0
 386 -172 423 -172 462 -172 c 1
 462 -222 l 1
 419 -222 361.083 -225.799 306 -203 c 0
 223.125 -168.698 230 -109 230 -92 c 2
 230 110 l 2
 229 131 229.967 142.984 221 162 c 0
 197.914 210.959 134 238 62 239 c 1
 62 289 l 1
 134 290 198 317 221 365 c 0
 232 389 229 408 230 418 c 2
 230 620 l 2
 230 646 227 698 306 731 c 0
 362 754 419 750 462 750 c 1
 462 700 l 1
 365 699 304 693 295 644 c 0
 294 636 294 628 294 620 c 2
 294 415 l 2
EndSplineSet
EndChar
StartChar: bar
Encoding: 124 124 97
Width: 292
Flags: W
TeX: 750 222 32767 32767
VStem: 125 40<-193 730.5>
Fore
144 749 m 0
 161 749 165 736 165 720 c 2
 165 -193 l 2
 165 -214 157 -222 144 -222 c 0
 134 -222 125 -214 125 -193 c 2
 125 720 l 2
 125 741 135 749 144 749 c 0
EndSplineSet
EndChar
StartChar: braceright
Encoding: 125 125 98
Width: 525
Flags: W
TeX: 750 222 32767 32767
HStem: -223 51<62 121 86.5 121>
VStem: 230 64<-92 187 410.5 620>
Fore
230 113 m 2
 230 261 401 264 401 264 c 1
 301 268 238 328 231 390 c 0
 230 398 230 406 230 415 c 2
 230 620 l 2
 230 637 230 652 219 666 c 0
 190 704 95 699 62 700 c 1
 62 750 l 1
 105 750 161.989 753.974 218 731 c 0
 300.984 696.962 294 638 294 620 c 2
 294 418 l 2
 295 398 294 385 303 365 c 0
 326 316 390 290 462 289 c 1
 462 239 l 1
 390 238 326 211 303 162 c 0
 292 138 296 121 294 110 c 1
 294 -92 l 2
 295 -112 294 -130 284 -150 c 0
 248 -216 148 -223 94 -223 c 0
 79 -223 67 -222 62 -222 c 1
 62 -172 l 1
 157 -172 220 -166 229 -116 c 0
 230 -108 230 -100 230 -92 c 2
 230 113 l 2
EndSplineSet
EndChar
StartChar: asciitilde
Encoding: 126 126 99
Width: 642
Flags: W
TeX: 694 0 32767 32767
HStem: 589 50<387 443> 644 50<197.5 253.5>
Fore
554 695 m 1
 551 607 460 589 426 589 c 0
 348 589 287 644 216 644 c 0
 198 644 143 639 137 589 c 1
 87 589 l 1
 90 676 180 694 215 694 c 0
 292 694 354 639 424 639 c 0
 442 639 498 644 503 695 c 1
 554 695 l 1
EndSplineSet
EndChar
StartChar: section
Encoding: 167 167 100
Width: 467
Flags: W
TeX: 694 166 32767 32767
HStem: -175 50<176.5 280> 652 51<206 278>
VStem: 72 63<219.5 317.5 505 587.5> 330 63<-57.5 23 210.5 300.5>
Fore
237 652 m 0
 175 652 135 602 135 546 c 0
 135 464 237 436 264 423 c 0
 297 408 392 357 393 258 c 0
 393 163 311 121 311 120 c 1
 362 85 393 37 393 -18 c 0
 393 -97 330 -175 230 -175 c 0
 136 -175 86 -139 46 -105 c 1
 56 -48 l 1
 75 -66 126 -125 227 -125 c 0
 291 -125 330 -72 330 -18 c 0
 330 64 227 92 202 104 c 0
 170.139 119.293 72 170 72 269 c 0
 72 366 154 407 154 407 c 1
 82 457 72 514 72 546 c 0
 72 629 139 702 235 703 c 0
 319 703 365 666 390 647 c 1
 380 592 l 1
 366 604 319 652 237 652 c 0
330 257 m 0
 330 344 214 373 213 373 c 0
 187 374 135 334 135 270 c 0
 135 185 249 155 252 155 c 0
 275 154 330 191 330 257 c 0
EndSplineSet
EndChar
StartChar: quotesingle
Encoding: 39 39 101
Width: 292
Flags: W
TeX: 694 0 32767 32767
HStem: 675 20G<113 178>
Fore
113 695 m 1
 178 695 l 1
 171 386 l 1
 120 386 l 1
 114 658 l 1
 113 695 l 1
EndSplineSet
EndChar
StartChar: uni2116
Encoding: 8470 8470 102
Width: 825
Flags: W
TeX: 694 0 32767 32767
HStem: 0 21G<100 163 360 458> 178 50<560 757> 290 51<631.5 681.5> 481 51<631 684> 675 20G<100 198 395 458>
VStem: 100 63<0 695> 395 63<0 695> 559 52<374 442> 705 52<364.5 443>
Fore
100 695 m 1
 198 695 l 1
 332 280 l 2
 374 146 387 107 395 65 c 1
 395 695 l 1
 458 695 l 1
 458 0 l 1
 360 0 l 1
 237 377 l 2
 159 626 175 582 163 630 c 1
 163 0 l 1
 100 0 l 1
 100 695 l 1
658 532 m 0
 710 532 757 478 757 408 c 0
 757 321 693 290 658 290 c 0
 605 290 559 340 559 408 c 0
 559 476 604 532 658 532 c 0
658 341 m 0
 705 341 705 383 705 403 c 0
 705 443 701 463 680 476 c 0
 675 479 667 481 658 481 c 0
 620 481 611 450 611 410 c 0
 611 397 l 0
 611 367 621 341 658 341 c 0
560 228 m 1
 757 228 l 1
 757 178 l 1
 560 178 l 1
 560 228 l 1
EndSplineSet
EndChar
StartChar: uni03BC
Encoding: 956 956 103
Width: 583
Flags: W
TeX: 472 166 32767 32767
HStem: -167 21G<43 108> 453 20G<43 107 400 464>
VStem: 43 65<-167 473> 400 65<76 473>
Fore
480 -9 m 1
 410 -2 403 63 400 80 c 1
 345 -14 256 -8 253 -9 c 1
 214 -6 158 1 108 80 c 1
 108 -167 l 1
 43 -167 l 1
 43 473 l 1
 107 473 l 1
 108 472 l 1
 108 187 l 1
 116 111 180 56 254 56 c 0
 336 56 389 119 398 177 c 0
 400 191 400 204 400 218 c 2
 400 473 l 1
 464 473 l 1
 465 472 l 1
 465 93 l 2
 465 59 481 53 491 53 c 0
 508 53 519 67 516 88 c 1
 561 88 l 1
 562 83 562 78 562 73 c 0
 562 51 550 -2 480 -9 c 1
EndSplineSet
KernsSLIFO: 191 -64 2 0 179 -87 2 0
EndChar
StartChar: paragraph
Encoding: 182 182 104
Width: 642
Flags: W
TeX: 694 166 32767 32767
HStem: -166 21G<381 397.5 497 513> 655 40<333 596>
VStem: 372 40<-138.5 244> 485 40<-136 655>
Fore
58 470 m 0
 58 583 153 695 333 695 c 2
 578 695 l 2
 612 695 608 681 611 679 c 1
 612 666 607 655 585 655 c 2
 525 655 l 1
 525 -136 l 2
 525 -152 521 -166 505 -166 c 0
 489 -166 485 -153 485 -136 c 2
 485 655 l 1
 412 655 l 1
 412 -128 l 2
 413 -158 403 -166 392 -166 c 0
 370 -166 372 -139 372 -138 c 2
 372 244 l 1
 200 248 58 333 58 470 c 0
EndSplineSet
EndChar
StartChar: afii10050
Encoding: 1168 1168 105
Width: 581
Flags: W
TeX: 861 0 32767 32767
HStem: 0 21G<98 168> 641 54<98 537>
VStem: 98 70<0 695> 481 56<641 861>
Fore
481 861 m 1
 537 861 l 1
 537 641 l 1
 168 641 l 1
 168 0 l 1
 98 0 l 1
 98 695 l 1
 481 695 l 1
 481 861 l 1
EndSplineSet
KernsSLIFO: 161 -87 1 0 115 -87 1 0 146 -87 1 0 141 -87 1 0 151 -87 1 0 117 -87 1 0 108 -58 1 0 125 -58 1 0 110 -29 1 0 128 -29 1 0 121 -87 1 0
EndChar
StartChar: afii10051
Encoding: 1026 1026 106
Width: 871
Flags: W
TeX: 694 0 32767 32767
HStem: -17 51<573 667.5> 439 50<543.5 726> 641 54<37 686>
VStem: 327 70<0 641> 767 65<231 340.5>
Fore
397 369 m 1
 459 481 580 489 621 489 c 0
 831 489 832 369 832 312 c 2
 832 231 l 2
 832 203 832.926 184.019 825 153 c 0
 803.803 70.0503 736 -17 599 -17 c 0
 547 -17 497 -6 470 0 c 1
 485 57 l 1
 527 42 554 34 609 34 c 0
 703 34 759 93 766 188 c 0
 768 211 767 234 767 257 c 2
 767 302 l 2
 767 378 746 439 572 439 c 0
 515 439 469 420 434 380 c 0
 397 335 397 290 397 264 c 2
 397 0 l 1
 327 0 l 1
 327 641 l 1
 37 641 l 1
 37 695 l 1
 686 695 l 1
 686 641 l 1
 397 641 l 1
 397 369 l 1
EndSplineSet
KernsSLIFO: 153 -87 1 0 156 -29 1 0 150 -29 1 0 127 -29 1 0 130 -87 1 0 107 -87 1 0 106 -87 1 0 133 -87 1 0 110 -29 1 0 128 -29 1 0 122 -29 1 0
EndChar
StartChar: afii10060
Encoding: 1035 1035 107
Width: 802
Flags: W
TeX: 694 0 32767 32767
HStem: -0 21G<286 356 612 677> 430 51<460 597.5> 641 54<38 662>
VStem: 286 70<-0 641> 612 65<-0 341>
Fore
612 309 m 2
 611 364 607 430 479 430 c 0
 441 430 416 413 397 393 c 0
 350 343 356 268 356 262 c 2
 356 -0 l 1
 286 -0 l 1
 286 641 l 1
 38 641 l 1
 38 695 l 1
 662 695 l 1
 662 641 l 1
 356 641 l 1
 356 376 l 1
 373 410 422 481 520 481 c 0
 675 481 677 370 677 312 c 2
 677 -0 l 1
 612 -0 l 1
 612 309 l 2
EndSplineSet
EndChar
StartChar: afii10058
Encoding: 1033 1033 108
Width: 1070
Flags: W
TeX: 694 0 32767 32767
HStem: 0 53<20 100 541 772> 335 53<611 734> 641 54<233 611>
VStem: 233 55<592.5 695> 541 70<0 641> 945 66<169.5 212.5>
Fore
233 695 m 1
 611 695 l 1
 611 388 l 1
 734 388 l 2
 797 388 845.898 389.818 908 355 c 0
 995.856 305.743 1011 230 1011 195 c 0
 1010 79 905 12 808 2 c 0
 794 0 779 0 765 0 c 2
 541 0 l 1
 541 641 l 1
 288 641 l 1
 288 544 280.864 368.03 243 194 c 0
 198.841 -8.96539 119 0 70 0 c 2
 20 0 l 1
 20 53 l 1
 59 53 l 2
 141 53 170.558 107.082 197 249 c 0
 225.523 402.089 233 525 233 695 c 1
611 335 m 1
 611 53 l 1
 718 53 l 2
 758 53 798 51 847 72 c 0
 910 98 945 145 945 194 c 0
 945 218 937 242 919 264 c 0
 855 345 735 335 713 335 c 2
 611 335 l 1
EndSplineSet
KernsSLIFO: 153 -87 1 0 156 -29 1 0 150 -29 1 0 127 -29 1 0 130 -87 1 0 107 -87 1 0 106 -87 1 0 133 -87 1 0 110 -29 1 0 128 -29 1 0 122 -29 1 0
EndChar
StartChar: afii10145
Encoding: 1039 1039 109
Width: 704
Flags: W
TeX: 694 166 32767 32767
HStem: -167 21G<321 382> 0 55<98 605> 675 20G<98 168 535 605>
VStem: 98 70<0 695> 321 61<-167 0> 535 70<0 695>
CounterMasks: 1 00
Fore
98 695 m 1
 168 695 l 1
 168 55 l 1
 535 55 l 1
 535 695 l 1
 605 695 l 1
 605 0 l 1
 382 0 l 1
 382 -167 l 1
 321 -167 l 1
 321 0 l 1
 98 0 l 1
 98 695 l 1
EndSplineSet
EndChar
StartChar: afii10053
Encoding: 1028 1028 110
Width: 671
Flags: W
TeX: 694 0 32767 32767
HStem: -17 53<313.5 468.5> 320 54<152 527> 658 53<353 449.5>
CounterMasks: 1 00
Fore
411 36 m 0
 526 36 564 68 612 97 c 1
 617 39 l 1
 541 -4 505 -16 413 -17 c 0
 214 -17 81 158 81 347 c 0
 81 427 105 507 151 573 c 0
 213 660 307 711 410 711 c 0
 489 711 542 699 606 677 c 1
 593 608 l 1
 542 635 499 657 411 658 c 0
 295 658 168 563 152 374 c 1
 527 374 l 1
 527 320 l 1
 152 320 l 1
 167 146 281 36 411 36 c 0
EndSplineSet
EndChar
StartChar: afii10059
Encoding: 1034 1034 111
Width: 1065
Flags: W
TeX: 694 0 32767 32767
HStem: 0 53<535 765.5> 335 53<168 535 605 758.5> 675 20G<98 168 535 605>
VStem: 98 70<0 695> 535 71<335 335> 940 66<169.5 235>
Fore
98 695 m 1
 168 695 l 1
 168 388 l 1
 535 388 l 1
 535 695 l 1
 605 695 l 1
 605 388 l 1
 729 388 l 2
 788 388 839.912 389.841 901 356 c 0
 989.872 306.768 1006 232 1006 194 c 0
 1004 79 899 12 803 2 c 0
 788 0 773 0 758 0 c 2
 535 0 l 1
 535 335 l 1
 168 335 l 1
 168 0 l 1
 98 0 l 1
 98 695 l 1
606 335 m 1
 605 296 l 1
 605 53 l 1
 711 53 l 2
 754 53 794 52 843 72 c 0
 905 98 940 145 940 194 c 0
 940 276 850 325 773 333 c 0
 751 335 729 335 708 335 c 2
 606 335 l 1
EndSplineSet
KernsSLIFO: 153 -87 1 0 156 -29 1 0 150 -29 1 0 127 -29 1 0 130 -87 1 0 107 -87 1 0 106 -87 1 0 133 -87 1 0 110 -29 1 0 128 -29 1 0 122 -29 1 0
EndChar
StartChar: afii10098
Encoding: 1169 1169 112
Width: 417
Flags: W
TeX: 611 0 32767 32767
HStem: 0 21G<80 145> 422 50<80 390>
VStem: 80 65<0 472> 336 54<422 561>
Fore
336 561 m 1
 390 561 l 1
 390 422 l 1
 145 422 l 1
 145 0 l 1
 80 0 l 1
 80 472 l 1
 336 472 l 1
 336 561 l 1
EndSplineSet
KernsSLIFO: 161 -29 1 0 115 -29 1 0 146 -29 1 0 141 -29 1 0
Position: 0 3 'ITLC' dx=0 dy=0 dh=14 dv=0
EndChar
StartChar: afii10099
Encoding: 1106 1106 113
Width: 487
Flags: W
TeX: 694 166 32767 32767
HStem: 0 21G<79 144> 430 51<257 383> 558 51<19 79 143 461> 675 20G<79 143>
VStem: 79 64<374 558 609 695> 397 64<214 310>
Fore
144 -127 m 1
 297 -126 396 34 397 245 c 2
 397 306 l 2
 396 334 398 363 378 389 c 0
 354 422 307 430 273 430 c 0
 246 430 204 427 172 376 c 0
 147 338 144 301 144 258 c 2
 144 0 l 1
 79 0 l 1
 79 558 l 1
 19 558 l 1
 19 609 l 1
 79 609 l 1
 79 695 l 1
 143 695 l 1
 143 609 l 1
 461 609 l 1
 461 558 l 1
 143 558 l 1
 143 374 l 1
 160 410 208 481 306 481 c 0
 460 481 461 369 461 310 c 2
 461 260 l 2
 461 168 444.827 68.117 382 -25 c 0
 297.768 -149.843 195 -166 144 -167 c 1
 144 -127 l 1
EndSplineSet
EndChar
StartChar: afii10108
Encoding: 1115 1115 114
Width: 517
Flags: W
TeX: 694 0 32767 32767
HStem: 0 21G<80 144 371 435> 430 50<237 362.5> 558 51<19 80 143 403> 675 20G<80 143>
VStem: 80 63<407 558 609 695> 371 64<0 345>
Fore
259 430 m 0
 215 430 144 406 144 262 c 2
 144 0 l 1
 80 0 l 1
 80 558 l 1
 19 558 l 1
 19 609 l 1
 80 609 l 1
 80 695 l 1
 143 695 l 1
 143 609 l 1
 403 609 l 1
 403 558 l 1
 143 558 l 1
 143 407 l 1
 144 378 l 1
 159 412 202 480 292 480 c 0
 433 480 435 373 435 315 c 2
 435 0 l 1
 371 0 l 1
 371 311 l 2
 371 379 353 430 259 430 c 0
EndSplineSet
EndChar
StartChar: afii10106
Encoding: 1113 1113 115
Width: 772
Flags: W
TeX: 472 0 32767 32767
HStem: 0 53<20 67.5> 240 40<437 547> 422 50<167 437>
VStem: 167 55<350.5 472> 376 61<0 422> 675 61<120.5 175.5>
Fore
167 472 m 1
 437 472 l 1
 437 280 l 1
 520 280 l 2
 574 280 617 279 666 251 c 0
 682 241 736 207 736 144 c 0
 736 97 714 54 676 30 c 0
 625 -3 562 0 525 0 c 2
 376 0 l 1
 376 422 l 1
 222 422 l 1
 222 279 207 180 189 124 c 0
 149 -8 82 0 53 0 c 2
 20 0 l 1
 20 53 l 1
 54 53 l 2
 62 53 70 53 78 54 c 0
 172 70 166 308 167 472 c 1
438 240 m 1
 437 211 l 1
 437 52 l 1
 523 52 l 2
 575 52 627 57 657 93 c 0
 668 108 675 126 675 145 c 0
 675 201 612 234 557 239 c 0
 542 240 526 240 511 240 c 2
 438 240 l 1
EndSplineSet
KernsSLIFO: 117 -29 1 0 151 -29 1 0 153 -87 1 0 156 -29 1 0 150 -29 1 0
EndChar
StartChar: afii10193
Encoding: 1119 1119 116
Width: 533
Flags: W
TeX: 472 138 32767 32767
HStem: 0 50<81 450> 452 20G<81 142 389 450>
VStem: 81 61<0 472> 238 55<-139 0> 389 61<0 472>
CounterMasks: 1 00
Fore
81 472 m 1
 142 472 l 1
 142 50 l 1
 389 50 l 1
 389 472 l 1
 450 472 l 1
 450 0 l 1
 293 0 l 1
 293 -139 l 1
 238 -139 l 1
 238 0 l 1
 81 0 l 1
 81 472 l 1
EndSplineSet
EndChar
StartChar: afii10101
Encoding: 1108 1108 117
Width: 461
Flags: W
TeX: 472 0 32767 32767
HStem: -8 52<195.5 306> 240 40<105 369> 433 52<191.5 300.5>
VStem: 40 65<170.5 301.5>
Fore
259 44 m 0
 353 44 404 93 426 111 c 1
 431 55 l 1
 379 14 327 -8 258 -8 c 0
 133 -8 40 104 40 237 c 0
 40 366 129 485 261 485 c 0
 340 485 373 470 425 442 c 1
 415 387 l 1
 360 420 337 432 261 433 c 0
 122 433 107 280 107 280 c 1
 368 280 l 1
 369 279 l 1
 369 240 l 1
 105 240 l 1
 105 101 185 44 259 44 c 0
EndSplineSet
EndChar
StartChar: afii10107
Encoding: 1114 1114 118
Width: 785
Flags: W
TeX: 472 0 32767 32767
HStem: 0 52<389 562.5> 240 40<142 389 451 533> 452 20G<81 142 389 451>
VStem: 81 61<0 472> 389 62<0 240 280 472> 689 60<120.5 175.5>
Fore
81 472 m 1
 142 472 l 1
 142 280 l 1
 389 280 l 1
 389 472 l 1
 451 472 l 1
 451 280 l 1
 533 280 l 2
 587 280 631 279 680 251 c 0
 696 241 749 207 749 144 c 0
 749 97 727 54 689 30 c 0
 638 -3 575 0 539 0 c 2
 389 0 l 1
 389 240 l 1
 142 240 l 1
 142 0 l 1
 81 0 l 1
 81 472 l 1
451 240 m 1
 451 52 l 1
 536 52 l 2
 589 52 641 57 670 93 c 0
 682 108 689 126 689 145 c 0
 689 201 625 234 570 239 c 0
 555 240 539 240 524 240 c 2
 451 240 l 1
EndSplineSet
KernsSLIFO: 117 -29 1 0 151 -29 1 0 153 -87 1 0 156 -29 1 0 150 -29 1 0
EndChar
StartChar: afii10018
Encoding: 1041 1041 119
Width: 687
Flags: W
TeX: 694 0 32767 32767
HStem: 0 53<99 368.5> 335 53<166 350> 641 54<99 570>
VStem: 99 67<0 695> 562 66<173 220>
Fore
99 695 m 1
 570 695 l 1
 570 641 l 1
 166 641 l 1
 166 388 l 1
 316 388 l 2
 384 388 448 390 520 351 c 0
 541 339 627 288 628 194 c 0
 627 100 543 49 521 38 c 0
 453 0 387 0 350 0 c 2
 99 0 l 1
 99 695 l 1
167 335 m 1
 166 296 l 1
 166 53 l 1
 297 53 l 2
 362 53 423.903 52.1664 489 90 c 0
 533.933 116.115 562 152 562 194 c 0
 562 246 515.932 281.883 490 297 c 0
 416.807 339.669 338 335 298 335 c 2
 167 335 l 1
EndSplineSet
EndChar
StartChar: afii10020
Encoding: 1043 1043 120
AltUni: 915
Width: 567
Flags: W
TeX: 694 0 32767 32767
HStem: 1 21G<98 168> 641 53<98 523>
VStem: 98 70<1 694>
Fore
98 694 m 1
 523 694 l 1
 523 641 l 1
 168 641 l 1
 168 1 l 1
 98 1 l 1
 98 694 l 1
EndSplineSet
KernsSLIFO: 161 -87 1 0 115 -87 1 0 146 -87 1 0 141 -87 1 0 151 -87 1 0 117 -87 1 0 108 -58 1 0 125 -58 1 0 121 -87 1 0
EndChar
StartChar: afii10021
Encoding: 1044 1044 121
Width: 715
Flags: W
TeX: 694 166 32767 32767
HStem: -167 21G<37 93 621 677> 0 55<93 621> 641 54<232 611>
VStem: 37 56<-167 55> 232 56<599 641> 541 70<55 695> 621 56<-167 55>
Fore
232 599 m 2
 232 695 l 1
 611 695 l 1
 611 55 l 1
 677 55 l 1
 677 -167 l 1
 621 -167 l 1
 621 0 l 1
 93 0 l 1
 93 -167 l 1
 37 -167 l 1
 37 55 l 1
 83 55 l 1
 121 99 188.419 171.083 217 370 c 0
 227.781 445.031 231 522 232 599 c 2
288 641 m 1
 287 582 287 519 282 448 c 0
 262 181 178 89 157 55 c 1
 541 55 l 1
 541 641 l 1
 288 641 l 1
EndSplineSet
EndChar
StartChar: afii10024
Encoding: 1046 1046 122
Width: 1142
Flags: W
TeX: 694 0 32767 32767
HStem: 0 21G<43 119 537 603 1020 1097> 675 20G<58 139 537 603 1000 1082>
VStem: 537 66<0 224 305 695>
Fore
537 224 m 1
 383 375 l 1
 119 0 l 1
 43 0 l 1
 338 420 l 1
 58 695 l 1
 139 695 l 1
 537 305 l 1
 537 695 l 1
 603 695 l 1
 603 305 l 1
 1000 695 l 1
 1082 695 l 1
 802 420 l 1
 1097 0 l 1
 1020 0 l 1
 757 375 l 1
 756 375 l 1
 603 224 l 1
 603 0 l 1
 537 0 l 1
 537 224 l 1
EndSplineSet
KernsSLIFO: 156 -29 1 0 150 -29 1 0 153 -29 1 0 110 -29 1 0 128 -29 1 0
EndChar
StartChar: afii10025
Encoding: 1047 1047 123
Width: 642
Flags: W
TeX: 694 0 32767 32767
HStem: -17 53<243 378> 336 50<204 297> 658 53<257 375>
VStem: 504 64<497.5 578.5> 532 65<157 228>
Fore
504 525 m 0xf0
 504 632 424 658 326 658 c 0
 188 658 131 596 96 569 c 1
 64 625 l 1
 152 689 222 711 327 711 c 0
 406 711 483.803 700.837 530 645 c 0
 559.872 608.894 568 560 568 526 c 0xf0
 568 498 558 403 382 363 c 1
 508 345 597 271 597 185 c 0
 597 129 564 78 519 44 c 0
 457 -4 385 -17 320 -17 c 0
 166 -17 109 35 52 82 c 1
 81 133 l 1
 171 55 208 36 321 36 c 0
 435 36 502 91 524 146 c 0
 529 160 532 174 532 186 c 0xe8
 532 227 507 259 491 275 c 0
 420 346 314 335 297 336 c 2
 204 336 l 1
 204 386 l 1
 279 386 l 2
 309 387 334 386 368 393 c 0
 458 414 504 470 504 525 c 0xf0
EndSplineSet
EndChar
StartChar: afii10026
Encoding: 1048 1048 124
Width: 704
Flags: W
TeX: 694 0 32767 32767
HStem: 0 21G<98 194 539 605> 675 20G<98 164 509 605>
VStem: 98 66<0 695> 539 66<0 695>
Fore
98 695 m 1
 164 695 l 1
 164 89 l 1
 165 56 l 1
 509 695 l 1
 605 695 l 1
 605 0 l 1
 539 0 l 1
 539 606 l 1
 538 639 l 1
 194 0 l 1
 98 0 l 1
 98 695 l 1
EndSplineSet
Substitution: 0 3 'aalt' uni0418_acutecomb
EndChar
StartChar: afii10029
Encoding: 1051 1051 125
Width: 710
Flags: W
TeX: 694 0 32767 32767
HStem: 0 53<20 100> 641 54<233 611>
VStem: 233 55<592.5 695> 541 70<0 695>
Fore
233 695 m 1
 611 695 l 1
 611 0 l 1
 541 0 l 1
 541 641 l 1
 288 641 l 1
 288 544 280.864 368.03 243 194 c 0
 198.841 -8.96539 119 0 70 0 c 2
 20 0 l 1
 20 53 l 1
 59 53 l 2
 141 53 170.642 107.066 197 249 c 0
 225.612 403.072 233 525 233 695 c 1
EndSplineSet
EndChar
StartChar: afii10033
Encoding: 1055 1055 126
AltUni: 928
Width: 704
Flags: W
TeX: 694 0 32767 32767
HStem: 0 21G<98 168 535 605> 641 54<98 605>
VStem: 98 70<0 695> 535 70<0 695>
Fore
98 695 m 1
 605 695 l 1
 605 0 l 1
 535 0 l 1
 535 641 l 1
 168 641 l 1
 168 0 l 1
 98 0 l 1
 98 695 l 1
EndSplineSet
EndChar
StartChar: afii10037
Encoding: 1059 1059 127
Width: 675
Flags: W
TeX: 694 0 32767 32767
HStem: -0 53<162 239> 675 20G<14 90 591 659>
Fore
14 695 m 1
 90 695 l 1
 273 365 l 2
 346 231 358 210 371 180 c 1
 383 214 l 1
 445 359 l 1
 591 695 l 1
 659 695 l 1
 463 245 l 2
 443 200 424 153 399 110 c 0
 334 0 265 -0 213 -0 c 2
 162 -0 l 1
 162 53 l 1
 211 53 l 2
 227 53 288 49 327 101 c 0
 337 113 337 117 330 129 c 2
 14 695 l 1
EndSplineSet
KernsSLIFO: 161 -87 1 0 115 -87 1 0 146 -87 1 0 141 -87 1 0 117 -29 1 0 110 -29 1 0 128 -29 1 0 108 -58 1 0 125 -58 1 0 121 -58 1 0
Substitution: 0 3 'aalt' uni0423_acutecomb
Position: 0 3 'ITLC' dx=0 dy=0 dh=14 dv=0
EndChar
StartChar: afii10038
Encoding: 1060 1060 128
Width: 875
Flags: W
TeX: 694 0 32767 32767
HStem: 0 21G<403 471> 105 50<471 624> 675 20G<403 471>
VStem: 58 69<311.5 385> 403 68<0 105 155 568 618 695> 748 68<313 361>
Fore
58 361 m 0
 59 464 103 617 403 618 c 1
 403 695 l 1
 471 695 l 1
 471 618 l 1
 777 617 815 459 816 361 c 0
 816 265 777 105 471 105 c 1
 471 0 l 1
 403 0 l 1
 403 105 l 1
 100 105 58 262 58 361 c 0
403 568 m 1
 338 564 234 561 176 500 c 0
 140 463 127 410 127 360 c 0
 129 144 354 159 403 155 c 1
 403 568 l 1
471 568 m 1
 471 155 l 1
 536 158 640 161 699 222 c 0
 734 259 748 311 748 361 c 0
 747 578 520 564 471 568 c 1
EndSplineSet
KernsSLIFO: 127 -29 1 0 122 -29 1 0 121 -29 1 0
EndChar
StartChar: afii10040
Encoding: 1062 1062 129
Width: 710
Flags: W
TeX: 694 166 32767 32767
HStem: -167 21G<615 671> 0 55<98 615> 675 20G<98 168 535 605>
VStem: 98 70<0 695> 535 70<55 695> 615 56<-167 55>
Fore
98 695 m 1
 168 695 l 1
 168 55 l 1
 535 55 l 1
 535 695 l 1
 605 695 l 1
 605 55 l 1
 671 55 l 1
 671 -167 l 1
 615 -167 l 1
 615 0 l 1
 98 0 l 1
 98 695 l 1
EndSplineSet
EndChar
StartChar: afii10041
Encoding: 1063 1063 130
Width: 704
Flags: W
TeX: 694 0 32767 32767
HStem: -0 21G<535 605> 307 52<296.5 535> 675 20G<98 168 535 605>
VStem: 98 70<444.5 695 448 695> 535 70<-0 695>
Fore
98 695 m 1
 168 695 l 1
 168 460 l 2
 168 436 168 422 181 404 c 0
 217 352 291 359 302 359 c 2
 535 359 l 1
 535 695 l 1
 605 695 l 1
 605 -0 l 1
 535 -0 l 1
 535 307 l 1
 299 307 l 2
 281 308 210.035 301.039 140 363 c 0
 97.0213 401.024 98 429 98 460 c 2
 98 695 l 1
EndSplineSet
EndChar
StartChar: afii10042
Encoding: 1064 1064 131
Width: 1102
Flags: W
TeX: 694 0 32767 32767
HStem: 0 21G<98 1003> 675 20G<98 164 516 582 937 1003>
VStem: 98 66<0 695> 516 66<55 695> 937 66<0 695>
Fore
98 695 m 1
 164 695 l 1
 164 55 l 1
 516 55 l 1
 516 695 l 1
 582 695 l 1
 582 55 l 1
 937 55 l 1
 937 695 l 1
 1003 695 l 1
 1003 0 l 1
 98 0 l 1
 98 695 l 1
EndSplineSet
EndChar
StartChar: afii10043
Encoding: 1065 1065 132
Width: 1108
Flags: W
TeX: 694 166 32767 32767
HStem: -167 21G<1013 1069> 0 55<98 1013> 675 20G<98 164 515 582 936 1003>
VStem: 98 66<0 695> 515 67<55 695> 936 67<55 695> 1013 56<-167 55>
Fore
98 695 m 1
 164 695 l 1
 164 55 l 1
 515 55 l 1
 515 695 l 1
 582 695 l 1
 582 55 l 1
 936 55 l 1
 936 695 l 1
 1003 695 l 1
 1003 55 l 1
 1069 55 l 1
 1069 -167 l 1
 1013 -167 l 1
 1013 0 l 1
 98 0 l 1
 98 695 l 1
EndSplineSet
EndChar
StartChar: afii10044
Encoding: 1066 1066 133
Width: 917
Flags: W
TeX: 694 0 32767 32767
HStem: 0 53<328 587.5> 335 53<395 579> 641 54<37 395>
VStem: 328 67<0 641> 791 66<160.5 225.5>
Fore
37 695 m 1
 395 695 l 1
 395 388 l 1
 545 388 l 2
 613 388 678 390 751 350 c 0
 816 314 857 257 857 194 c 0
 856 79 737 12 632 2 c 0
 614 0 596 0 579 0 c 2
 328 0 l 1
 328 641 l 1
 37 641 l 1
 37 695 l 1
396 335 m 1
 395 296 l 1
 395 53 l 1
 527 53 l 2
 586 53 641 52 702 82 c 0
 720 90 791 127 791 194 c 0
 791 246 747 281 719 297 c 0
 646 340 567 335 527 335 c 2
 396 335 l 1
EndSplineSet
KernsSLIFO: 153 -87 1 0 156 -29 1 0 150 -29 1 0 127 -29 1 0 130 -87 1 0 107 -87 1 0 106 -87 1 0 133 -87 1 0 110 -29 1 0 128 -29 1 0 122 -29 1 0
EndChar
StartChar: afii10045
Encoding: 1067 1067 134
Width: 908
Flags: W
TeX: 694 0 32767 32767
HStem: 0 53<99 368.5> 335 53<166 350> 675 20G<99 166 736 806>
VStem: 99 67<0 695> 562 66<173 220> 736 70<0 695>
Fore
736 695 m 1
 806 695 l 1
 806 0 l 1
 736 0 l 1
 736 695 l 1
99 695 m 1
 166 695 l 1
 166 388 l 1
 316 388 l 2
 384 388 448 390 520 351 c 0
 541 339 627 288 628 194 c 0
 627 100 543 49 521 38 c 0
 453 0 387 0 350 0 c 2
 99 0 l 1
 99 695 l 1
167 335 m 1
 166 296 l 1
 166 53 l 1
 297 53 l 2
 362 53 423.903 52.166 489 90 c 0
 533.933 116.115 562 152 562 194 c 0
 562 246 515.932 281.883 490 297 c 0
 416.807 339.669 338 335 298 335 c 2
 167 335 l 1
EndSplineSet
Substitution: 0 3 'aalt' uni042B_acutecomb
EndChar
StartChar: afii10046
Encoding: 1068 1068 135
Width: 687
Flags: W
TeX: 694 0 32767 32767
HStem: 0 53<99 368.5> 335 53<166 350> 675 20G<99 166>
VStem: 99 67<0 695> 562 66<173 220>
Fore
99 695 m 1
 166 695 l 1
 166 388 l 1
 316 388 l 2
 384 388 448 390 520 351 c 0
 541 339 627 288 628 194 c 0
 627 100 543 49 521 38 c 0
 453 0 387 0 350 0 c 2
 99 0 l 1
 99 695 l 1
167 335 m 1
 166 296 l 1
 166 53 l 1
 297 53 l 2
 362 53 423.903 52.1664 489 90 c 0
 533.933 116.115 562 152 562 194 c 0
 562 246 515.932 281.883 490 297 c 0
 416.807 339.669 338 335 298 335 c 2
 167 335 l 1
EndSplineSet
KernsSLIFO: 153 -87 1 0 156 -29 1 0 150 -29 1 0 127 -29 1 0 130 -87 1 0 107 -87 1 0 106 -87 1 0 133 -87 1 0 110 -29 1 0 128 -29 1 0 122 -29 1 0
EndChar
StartChar: afii10047
Encoding: 1069 1069 136
Width: 671
Flags: W
TeX: 694 0 32767 32767
HStem: -17 53<204 355.5> 320 54<142 517> 658 53<219.5 352>
CounterMasks: 1 00
Fore
257 -17 m 0
 139 -16 95 15 52 39 c 1
 57 97 l 1
 117 61 150 36 258 36 c 0
 292 36 326 43 364 62 c 0
 412 87 503 159 517 320 c 1
 142 320 l 1
 142 374 l 1
 517 374 l 1
 502 546 390 658 258 658 c 0
 144 657 93 614 76 608 c 1
 64 677 l 1
 128 699 180 711 259 711 c 0
 445 711 588 547 588 347 c 0
 588 158 454 -17 257 -17 c 0
EndSplineSet
KernsSLIFO: 127 -29 1 0 122 -29 1 0 121 -29 1 0
Substitution: 0 3 'aalt' uni042D_acutecomb
EndChar
StartChar: afii10048
Encoding: 1070 1070 137
Width: 1092
Flags: W
TeX: 694 0 32767 32767
HStem: -17 53<620 777.5> 319 53<168 367> 660 51<612.755 712.5>
VStem: 98 70<0 695> 963 70<270.5 445>
Fore
367 372 m 1
 381.231 567.672 525.51 711 700 711 c 0
 888 710 1033 544 1033 346 c 0
 1033 206 960 77 840 17 c 0
 801 -3 755 -16 700 -17 c 0
 540 -17 383 111 367 319 c 1
 168 319 l 1
 168 0 l 1
 98 0 l 1
 98 695 l 1
 168 695 l 1
 168 372 l 1
 367 372 l 1
699 36 m 0
 856 36 963 182 963 359 c 0
 963 529 864 619 776 648 c 0
 751 655 725 660 700 660 c 0
 548 660 436 530 436 359 c 0
 437 184 543 36 699 36 c 0
EndSplineSet
KernsSLIFO: 127 -29 1 0 122 -29 1 0 121 -29 1 0
Substitution: 0 3 'aalt' uni042E_acutecomb
EndChar
StartChar: afii10049
Encoding: 1071 1071 138
Width: 671
Flags: W
TeX: 694 0 32767 32767
HStem: -0 21G<29 109 503 572> 321 52<360 503> 641 54<312 572>
VStem: 58 66<490.5 537.5> 503 69<-0 695>
Fore
301 322 m 1
 242 326 164 346 110 399 c 0
 80 429 58 469 58 512 c 0
 58 563 89 608 134 639 c 0
 213 695 302 695 342 695 c 2
 572 695 l 1
 572 -0 l 1
 503 -0 l 1
 503 321 l 1
 369 321 l 1
 109 -0 l 1
 29 -0 l 1
 301 322 l 1
503 641 m 1
 351 641 l 2
 273 641 155 632 128 540 c 0
 125 531 124 521 124 512 c 0
 124 488 133 437 192 403 c 0
 241 376 292 372 360 373 c 2
 503 373 l 1
 503 641 l 1
EndSplineSet
Substitution: 0 3 'aalt' uni042F_acutecomb
EndChar
StartChar: afii10066
Encoding: 1073 1073 139
Width: 525
Flags: W
TeX: 694 0 32767 32767
HStem: -8 52<204 297> 434 50<223 322.5>
VStem: 40 65<164.5 312> 419 65<167.5 320.5>
Fore
262 484 m 0
 383 484 484 374 484 235 c 0
 484 161 452 85 391 37 c 0
 358 12 313 -8 262 -8 c 0
 146 -8 40 87 40 249 c 0
 42 381 44 560 145 638 c 0
 202 682 244 678 452 695 c 1
 452 677 l 2
 452 674 454 658 443 647 c 0
 431 635 424.95 637.549 289 625 c 0
 224 619 103 613 94 385 c 1
 131 446 195 484 262 484 c 0
262 434 m 0
 184 434 105 379 105 245 c 0
 105 84 199 44 262 44 c 0
 332 44 419 90 419 245 c 0
 419 396 325 434 262 434 c 0
EndSplineSet
KernsSLIFO: 161 -29 1 0 142 -29 1 0 141 -29 1 0
EndChar
StartChar: afii10068
Encoding: 1075 1075 140
Width: 417
Flags: W
TeX: 472 0 32767 32767
HStem: 0 21G<80 145> 423 49<80 390>
VStem: 80 65<0 472>
Fore
80 472 m 1
 390 472 l 1
 390 423 l 1
 145 423 l 1
 145 0 l 1
 80 0 l 1
 80 472 l 1
EndSplineSet
KernsSLIFO: 161 -29 1 0 115 -29 1 0 146 -29 1 0 141 -29 1 0
Position: 0 3 'ITLC' dx=0 dy=0 dh=14 dv=0
EndChar
StartChar: afii10069
Encoding: 1076 1076 141
Width: 522
Flags: W
TeX: 472 138 32767 32767
HStem: 0 50<84 436> 422 50<166 436>
VStem: 28 56<-139 50> 375 61<50 472> 436 56<-139 50>
Fore
166 472 m 1
 436 472 l 1
 436 50 l 1
 492 50 l 1
 492 -139 l 1
 436 -139 l 1
 436 0 l 1
 84 0 l 1
 84 -139 l 1
 28 -139 l 1
 28 50 l 1
 66 50 l 1
 93 78 133 120 153 237 c 0
 166 315 165 390 166 472 c 1
222 422 m 1
 223 319 215 155 140 50 c 1
 375 50 l 1
 375 422 l 1
 222 422 l 1
EndSplineSet
EndChar
StartChar: afii10072
Encoding: 1078 1078 142
Width: 750
Flags: W
TeX: 472 0 32767 32767
HStem: 0 21G<17 87 344 404 662 732> 452 20G<41 120 344 404 629 708>
VStem: 344 60<0 167 245 472>
Fore
17 0 m 1
 218 294 l 1
 41 472 l 1
 120 472 l 1
 344 246 l 1
 344 472 l 1
 404 472 l 1
 404 245 l 1
 629 472 l 1
 708 472 l 1
 531 293 l 1
 732 0 l 1
 662 0 l 1
 490 252 l 1
 404 166 l 1
 404 0 l 1
 344 0 l 1
 344 167 l 1
 258 252 l 1
 87 0 l 1
 17 0 l 1
EndSplineSet
KernsSLIFO: 117 -29 1 0
EndChar
StartChar: afii10073
Encoding: 1079 1079 143
Width: 467
Flags: W
TeX: 472 0 32767 32767
HStem: -8 51<172 298.5> 240 40<145 217> 434 51<164.5 244.5>
VStem: 360 59<329.5 388.5> 370 61<111 164.5>
Fore
360 358 m 0xf0
 360 419 282 434 207 434 c 0
 122 434 102 417 57 392 c 1
 34 442 l 1
 98 477 130 485 207 485 c 0
 246 485 338 484 384 440 c 0
 411 415 419 381 419 359 c 0xf0
 419 300 348 276 309 261 c 1
 395 238 431 189 431 140 c 0
 431 82 389 -8 208 -8 c 0
 136 -8 82 11 29 58 c 1
 52 109 l 1
 75 88 115 44 208 43 c 0
 343 46 370 104 370 142 c 0xe8
 370 160 363 220 262 236 c 0
 239 240 216 240 194 240 c 2
 145 240 l 1
 145 280 l 1
 198 280 l 2
 236 280 273 280 313 300 c 0
 341 314 360 334 360 358 c 0xf0
EndSplineSet
EndChar
StartChar: afii10074
Encoding: 1080 1080 144
Width: 533
Flags: W
TeX: 472 0 32767 32767
HStem: -0 21G<81 172 389 450> 452 20G<81 142 359 450>
VStem: 81 61<-0 472> 389 61<-0 472>
Fore
81 472 m 1
 142 472 l 1
 142 110 l 1
 143 56 l 1
 359 472 l 1
 450 472 l 1
 450 -0 l 1
 389 -0 l 1
 389 362 l 1
 388 416 l 1
 172 -0 l 1
 81 -0 l 1
 81 472 l 1
EndSplineSet
Substitution: 0 3 'aalt' uni0438_acutecomb
EndChar
StartChar: afii10076
Encoding: 1082 1082 145
Width: 487
Flags: W
TeX: 472 0 32767 32767
HStem: 0 21G<81 141 399 469> 452 20G<81 141 366 445>
VStem: 81 60<0 472>
Fore
445 472 m 1
 268 293 l 1
 469 0 l 1
 399 0 l 1
 227 252 l 1
 141 166 l 1
 141 0 l 1
 81 0 l 1
 81 472 l 1
 141 472 l 1
 141 245 l 1
 366 472 l 1
 445 472 l 1
EndSplineSet
KernsSLIFO: 117 -29 1 0
EndChar
StartChar: afii10077
Encoding: 1083 1083 146
Width: 519
Flags: W
TeX: 472 0 32767 32767
HStem: 0 53<20 67.5> 422 50<167 437>
VStem: 167 55<350.5 472> 376 61<0 472>
Fore
167 472 m 1
 437 472 l 1
 437 0 l 1
 376 0 l 1
 376 422 l 1
 222 422 l 1
 222 279 207 180 189 124 c 0
 149 -8 82 0 53 0 c 2
 20 0 l 1
 20 53 l 1
 54 53 l 2
 62 53 70 53 78 54 c 0
 172 70 166 308 167 472 c 1
EndSplineSet
EndChar
StartChar: afii10078
Encoding: 1084 1084 147
Width: 667
Flags: W
TeX: 472 0 32767 32767
HStem: 8 71<303 360> 452 20G<81 170 493 585>
VStem: 81 63<0 472> 522 63<0 472>
Fore
81 472 m 1
 170 472 l 1
 331 79 l 1
 332 79 l 1
 493 472 l 1
 585 472 l 1
 585 0 l 1
 522 0 l 1
 522 355 l 1
 521 408 l 1
 498 345 l 1
 360 8 l 1
 303 8 l 1
 171 333 l 1
 144 408 l 1
 144 0 l 1
 81 0 l 1
 81 472 l 1
EndSplineSet
EndChar
StartChar: afii10079
Encoding: 1085 1085 148
Width: 517
Flags: W
TeX: 472 0 32767 32767
HStem: 0 21G<81 142 372 434> 240 40<142 372> 452 20G<81 142 372 434>
VStem: 81 61<0 472> 372 62<0 472>
Fore
81 472 m 1
 142 472 l 1
 142 280 l 1
 372 280 l 1
 372 472 l 1
 434 472 l 1
 434 0 l 1
 372 0 l 1
 372 240 l 1
 142 240 l 1
 142 0 l 1
 81 0 l 1
 81 472 l 1
EndSplineSet
EndChar
StartChar: afii10081
Encoding: 1087 1087 149
Width: 517
Flags: W
TeX: 472 0 32767 32767
HStem: 0 21G<81 142 372 434> 422 50<81 434>
VStem: 81 61<0 472> 372 62<0 472>
Fore
81 472 m 1
 434 472 l 1
 434 0 l 1
 372 0 l 1
 372 422 l 1
 142 422 l 1
 142 0 l 1
 81 0 l 1
 81 472 l 1
EndSplineSet
EndChar
StartChar: afii10084
Encoding: 1090 1090 150
Width: 492
Flags: W
TeX: 472 0 32767 32767
HStem: 0 21G<213 277> 422 50<26 464>
VStem: 213 64<0 422>
Fore
26 472 m 1
 464 472 l 1
 464 422 l 1
 277 422 l 1
 277 0 l 1
 213 0 l 1
 213 422 l 1
 26 422 l 1
 26 472 l 1
EndSplineSet
KernsSLIFO: 161 -29 1 0 115 -29 1 0 146 -29 1 0 141 -29 1 0
Position: 0 3 'ITLC' dx=0 dy=0 dh=20 dv=0
EndChar
StartChar: afii10086
Encoding: 1092 1092 151
Width: 779
Flags: W
TeX: 694 166 32767 32767
HStem: -167 21G<357 421> -8 50<188 292.5 499 550> 428 52<487 575.5> 675 20G<357 421>
VStem: 46 65<161.5 305> 357 64<-167 62 107 353 413 695> 667 65<165 308>
CounterMasks: 1 00
Fore
236 -8 m 0
 140 -8 46 90 46 237 c 0
 46 373 125.057 462.711 203 478 c 0
 213.007 479.963 222 481 231 481 c 0
 297 481 340 435 357 413 c 1
 357 695 l 1
 421 695 l 1
 421 413 l 1
 452 456 498 480 549 480 c 0
 602 480 649.975 449.983 683 403 c 0
 720.971 348.98 732 286 732 236 c 0
 732 94 645 6 565 -6 c 0
 557 -8 549 -8 542 -8 c 0
 469 -8 432 47 421 62 c 1
 421 -167 l 1
 357 -167 l 1
 357 62 l 1
 324 13 280 -8 236 -8 c 0
266 42 m 0
 319 42 357 88 357 126 c 2
 357 347 l 2
 357 375 355 372 340 393 c 0
 319 417 292 429 264 429 c 0
 189 429 111 352 111 236 c 0
 111 87 220 42 266 42 c 0
667 236 m 0
 667 380 562 428 513 428 c 0
 461 428 421 388 421 353 c 2
 421 131 l 2
 421 114 419.047 108.032 435 85 c 0
 455.059 56.0406 484 42 514 42 c 0
 586 42 667 117 667 236 c 0
EndSplineSet
KernsSLIFO: 161 -29 1 0 142 -29 1 0 141 -29 1 0
EndChar
StartChar: afii10088
Encoding: 1094 1094 152
Width: 536
Flags: W
TeX: 472 138 32767 32767
HStem: 0 50<81 450> 452 20G<81 142 389 450>
VStem: 81 61<0 472> 389 61<50 472> 450 56<-139 50>
Fore
81 472 m 1
 142 472 l 1
 142 50 l 1
 389 50 l 1
 389 472 l 1
 450 472 l 1
 450 50 l 1
 506 50 l 1
 506 -139 l 1
 450 -139 l 1
 450 0 l 1
 81 0 l 1
 81 472 l 1
EndSplineSet
EndChar
StartChar: afii10089
Encoding: 1095 1095 153
Width: 533
Flags: W
TeX: 472 0 32767 32767
HStem: -0 21G<389 450> 207 39<172.5 389> 452 20G<81 142 389 450>
VStem: 81 61<306 472> 389 61<-0 472>
Fore
81 472 m 1
 142 472 l 1
 142 314 l 2
 142 298 142.057 287.042 151 275 c 0
 176.161 241.119 222 246 232 246 c 2
 389 246 l 1
 389 472 l 1
 450 472 l 1
 450 -0 l 1
 389 -0 l 1
 389 207 l 1
 226 207 l 2
 119 207 87 277 86 278 c 1
 81 289 81 301 81 313 c 2
 81 472 l 1
EndSplineSet
EndChar
StartChar: afii10090
Encoding: 1096 1096 154
Width: 779
Flags: W
TeX: 472 0 32767 32767
HStem: 0 21G<81 696> 452 20G<81 142 358 419 635 696>
VStem: 81 61<0 472> 358 61<50 472> 635 61<0 472>
CounterMasks: 1 00
Fore
81 472 m 1
 142 472 l 1
 142 50 l 1
 358 50 l 1
 358 472 l 1
 419 472 l 1
 419 50 l 1
 635 50 l 1
 635 472 l 1
 696 472 l 1
 696 0 l 1
 81 0 l 1
 81 472 l 1
EndSplineSet
EndChar
StartChar: afii10091
Encoding: 1097 1097 155
Width: 782
Flags: W
TeX: 472 138 32767 32767
HStem: -20 20G<81 696> 452 20G<81 142 358 419 635 696>
VStem: 81 61<0 472> 358 61<50 472> 635 61<50 472> 696 55<-139 50>
Fore
81 472 m 1
 142 472 l 1
 142 50 l 1
 358 50 l 1
 358 472 l 1
 419 472 l 1
 419 50 l 1
 635 50 l 1
 635 472 l 1
 696 472 l 1
 696 50 l 1
 751 50 l 1
 751 -139 l 1
 696 -139 l 1
 696 0 l 1
 81 0 l 1
 81 472 l 1
EndSplineSet
EndChar
StartChar: afii10092
Encoding: 1098 1098 156
Width: 625
Flags: W
TeX: 472 0 32767 32767
HStem: 0 52<215 404.5> 240 40<276 371> 422 50<26 276>
VStem: 215 61<0 422> 529 60<122 175.5>
Fore
26 472 m 1
 276 472 l 1
 276 280 l 1
 371 280 l 2
 425 280 469 280 519 251 c 0
 535 242 589 207 589 144 c 0
 589 100 569 55 528 29 c 0
 477 -3 415 0 378 0 c 2
 215 0 l 1
 215 422 l 1
 26 422 l 1
 26 472 l 1
276 240 m 1
 276 52 l 1
 375 52 l 2
 434 52 485 58 513 96 c 0
 523 110 529 127 529 145 c 0
 529 201 466 234 410 239 c 0
 394 240 378 240 362 240 c 2
 276 240 l 1
EndSplineSet
KernsSLIFO: 117 -29 1 0 151 -29 1 0 153 -87 1 0 156 -29 1 0 150 -29 1 0
EndChar
StartChar: afii10093
Encoding: 1099 1099 157
Width: 692
Flags: W
TeX: 472 0 32767 32767
HStem: 0 52<81 270.5> 240 40<142 264.5> 452 20G<81 142 547 609>
VStem: 81 61<0 472> 395 60<122 176> 547 62<-0 472>
Fore
81 472 m 1
 142 472 l 1
 142 280 l 1
 237 280 l 2
 292 280 335 280 385 251 c 0
 402 242 455 208 455 144 c 0
 455 100 436 55 394 29 c 0
 344 -3 281 0 244 0 c 2
 81 0 l 1
 81 472 l 1
143 240 m 1
 142 211 l 1
 142 52 l 1
 241 52 l 2
 300 52 351 58 379 96 c 0
 389 110 395 127 395 145 c 0
 395 188 357 211 347 217 c 0
 303 243 258 240 228 240 c 2
 143 240 l 1
547 472 m 1
 609 472 l 1
 609 -0 l 1
 547 -0 l 1
 547 472 l 1
EndSplineSet
Substitution: 0 3 'aalt' uni044B_acutecomb
EndChar
StartChar: afii10094
Encoding: 1100 1100 158
Width: 492
Flags: W
TeX: 472 0 32767 32767
HStem: 0 52<81 270.5> 240 40<142 264.5> 452 20G<81 142>
VStem: 81 61<0 472> 395 60<122 176>
Fore
81 472 m 1
 142 472 l 1
 142 280 l 1
 237 280 l 2
 292 280 335 280 385 251 c 0
 402 242 455 208 455 144 c 0
 455 100 436 55 394 29 c 0
 344 -3 281 0 244 0 c 2
 81 0 l 1
 81 472 l 1
143 240 m 1
 142 211 l 1
 142 52 l 1
 241 52 l 2
 300 52 351 58 379 96 c 0
 389 110 395 127 395 145 c 0
 395 188 357 211 347 217 c 0
 303 243 258 240 228 240 c 2
 143 240 l 1
EndSplineSet
KernsSLIFO: 117 -29 1 0 151 -29 1 0 153 -87 1 0 156 -29 1 0 150 -29 1 0
EndChar
StartChar: afii10095
Encoding: 1101 1101 159
Width: 467
Flags: W
TeX: 472 0 32767 32767
HStem: -8 52<163 247> 240 40<91 355> 433 52<169 279>
VStem: 355 64<180.5 279>
Fore
352 280 m 1
 346 316 321 433 198 433 c 0
 111 432 84 410 44 388 c 1
 34 442 l 1
 108 482 153 485 185 485 c 0
 373 485 419 321 419 237 c 0
 419 183 404 128 373 84 c 0
 333 28 272 -8 201 -8 c 0
 125 -8 72 19 29 55 c 1
 34 111 l 1
 88 64 134 44 201 44 c 0
 293 44 355 121 355 240 c 1
 91 240 l 1
 91 280 l 1
 352 280 l 1
EndSplineSet
KernsSLIFO: 161 -29 1 0 142 -29 1 0 141 -29 1 0
Substitution: 0 3 'aalt' uni044D_acutecomb
EndChar
StartChar: afii10096
Encoding: 1102 1102 160
Width: 754
Flags: W
TeX: 472 0 32767 32767
HStem: -8 52<426.5 523> 240 40<145 273> 434 51<446.5 551.5>
VStem: 80 65<-0 472> 648 65<164.5 320.5>
Fore
491 -8 m 0
 362 -8 269 105 269 240 c 1
 145 240 l 1
 145 -0 l 1
 80 -0 l 1
 80 472 l 1
 145 472 l 1
 145 280 l 1
 273 280 l 1
 295 417 402 485 491 485 c 0
 612 485 713 374 713 235 c 0
 713 107 627 15 530 -4 c 0
 517 -7 504 -8 491 -8 c 0
491 434 m 0
 429 434 334 397 334 245 c 0
 334 84 428 44 491 44 c 0
 555 44 648 84 648 245 c 0
 648 396 554 434 491 434 c 0
EndSplineSet
KernsSLIFO: 161 -29 1 0 142 -29 1 0 141 -29 1 0
Substitution: 0 3 'aalt' uni044E_acutecomb
EndChar
StartChar: afii10097
Encoding: 1103 1103 161
Width: 533
Flags: W
TeX: 472 0 32767 32767
HStem: 0 21G<17 96 388 452> 216 40<282 388> 422 50<260.5 452>
VStem: 73 60<297.5 361> 388 64<0 472>
Fore
229 219 m 1
 188 223 73 246 73 349 c 0
 73 372 79 394 94 412 c 0
 138 472 234 472 287 472 c 2
 452 472 l 1
 452 0 l 1
 388 0 l 1
 388 216 l 1
 289 216 l 1
 96 0 l 1
 17 0 l 1
 229 219 l 1
133 348 m 0
 135 257 231 256 282 256 c 2
 388 256 l 1
 388 422 l 1
 297 422 l 2
 256 422 216 423 183 413 c 0
 144 401 133 374 133 348 c 0
EndSplineSet
Substitution: 0 3 'aalt' uni044F_acutecomb
EndChar
StartChar: Euro
Encoding: 8364 8364 162
Width: 758
Flags: W
TeX: 694 0 32767 32767
HStem: 0 65<395.5 525> 272 59<26 137 194 566> 363 59<26 137 194 607> 630 64<403.5 522.5>
VStem: 129 65<331 363>
Fore
478 65 m 0
 572 65 647 101 712 157 c 1
 712 92 l 1
 642 29 559 0 475 0 c 0
 316 0 173 110 137 272 c 1
 -0 272 l 1
 26 331 l 1
 129 331 l 1
 129 363 l 1
 -0 363 l 1
 26 422 l 1
 137 422 l 1
 177 600 332 694 475 694 c 0
 570 694 650 658 712 600 c 1
 686 540 l 1
 624 598 562 630 476 630 c 0
 386 630 253 582 203 422 c 1
 633 422 l 1
 607 363 l 1
 194 363 l 1
 194 331 l 1
 592 331 l 1
 566 272 l 1
 203 272 l 1
 249 114 386 65 478 65 c 0
EndSplineSet
EndChar
StartChar: uni0394
Encoding: 916 916 163
Width: 875
Flags: W
TeX: 694 0 32767 32767
HStem: 0 66<43 830> 635 68<397 432>
Fore
397 703 m 1
 476 703 l 1
 830 0 l 1
 43 0 l 1
 397 703 l 1
432 635 m 1
 431 635 l 1
 144 66 l 1
 718 66 l 1
 432 635 l 1
EndSplineSet
KernsSLIFO: 168 -146 2 0
EndChar
StartChar: Phi
Encoding: 934 934 164
Width: 758
Flags: W
TeX: 694 0 32767 32767
HStem: 0 21G<344 411> 675 20G<344 411>
VStem: 58 69<331.5 423.5> 344 68<539 539> 630 69<275 395>
Fore
699 347 m 0
 699 203 547 115 411 105 c 1
 411 0 l 1
 344 0 l 1
 344 105 l 1
 175 120 98 216 74 272 c 0
 64 296 58 318 58 347 c 0
 58 465 172 575 344 589 c 1
 344 695 l 1
 411 695 l 1
 411 589 l 1
 557 580 698 485 699 347 c 0
344 539 m 1
 282 533 127 499 127 348 c 0
 127 315 137 240 218 193 c 0
 256 170 300 160 344 156 c 1
 344 539 l 1
412 539 m 1
 411 489 l 1
 411 156 l 1
 503 161 580 202 613 271 c 0
 625 295 630 321 630 347 c 0
 630 443 562 490 532 507 c 0
 495 526 453 536 412 539 c 1
EndSplineSet
EndChar
StartChar: Theta
Encoding: 920 920 165
Width: 817
Flags: W
TeX: 694 0 32767 32767
HStem: -17 52<314 491> 315 66<184 632> 661 50<324 503>
VStem: 58 67<243.5 444.5> 691 67<248 448.5>
Fore
408 -17 m 0
 220 -17 58 141 58 346 c 0
 58 543 195.099 644.8 258 676 c 0
 296.06 694.879 349 711 408 711 c 0
 598 711 758 551 758 346 c 0
 758 150 620.901 49.2003 558 18 c 0
 519.94 -0.87879 468 -17 408 -17 c 0
408 661 m 0
 240 661 126 519 125 346 c 0
 125 277 144 206 185 150 c 0
 236 78 319 35 408 35 c 0
 574 35 691 172 691 346 c 0
 690 466 639 558 565 611 c 0
 514 647 457 661 408 661 c 0
184 381 m 1
 632 381 l 1
 632 315 l 1
 184 315 l 1
 184 381 l 1
EndSplineSet
EndChar
StartChar: Lambda
Encoding: 923 923 166
Width: 617
Flags: W
TeX: 694 0 32767 32767
HStem: 0 21G<29 93 513 587> 683 20G<270 346>
Fore
270 703 m 1
 346 703 l 1
 587 0 l 1
 513 0 l 1
 394 347 l 2
 333 530 319 571 303 630 c 1
 293 594 l 1
 236 420 l 1
 93 0 l 1
 29 0 l 1
 270 703 l 1
EndSplineSet
KernsSLIFO: 168 -105 2 0
EndChar
StartChar: Sigma
Encoding: 931 931 167
Width: 758
Flags: W
TeX: 694 0 32767 32767
HStem: 0 56<58 699> 641 54<58 699>
Fore
297 340 m 1
 58 641 l 1
 58 695 l 1
 699 695 l 1
 699 641 l 1
 148 641 l 1
 380 348 l 1
 177 56 l 1
 699 56 l 1
 699 0 l 1
 58 0 l 1
 297 340 l 1
EndSplineSet
EndChar
StartChar: Upsilon
Encoding: 933 933 168
Width: 817
Flags: W
TeX: 694 0 32767 32767
HStem: 0 21G<373 443> 691 20G<196.5 294.5 521.5 635.5>
VStem: 373 70<0 350.5>
Fore
58 555 m 1
 61 682 174 711 219 711 c 0
 370 711 401 520 408 464 c 1
 415 519 446 711 597 711 c 0
 674 711 739 659 755 587 c 0
 757 577 758 566 758 555 c 1
 693 555 l 1
 692 582 681 652 598 659 c 1
 557 655 485 647 455 498 c 0
 441 425 443 351 443 277 c 2
 443 0 l 1
 373 0 l 1
 373 277 l 2
 373 424 369 468 355 524 c 0
 318 665 233 657 218 659 c 1
 135 651 124 581 123 555 c 1
 58 555 l 1
EndSplineSet
KernsSLIFO: 166 -146 2 0 163 -146 2 0
EndChar
StartChar: uni03A9
Encoding: 937 937 169
Width: 758
Flags: W
TeX: 694 0 32767 32767
HStem: 0 56<46 294 462 710> 661 50<288 450>
VStem: 57 70<378.5 520> 629 70<378 519.5>
Fore
699 462 m 0
 699 312 560 211 519 56 c 1
 710 56 l 1
 710 0 l 1
 462 0 l 1
 465 174 629 295 629 461 c 0
 629 578 521 661 379 661 c 0
 237 661 127 579 127 461 c 0
 127 296 291 173 294 0 c 1
 46 0 l 1
 46 56 l 1
 237 56 l 1
 195 213 57 312 57 461 c 0
 58 598 197 711 379 711 c 0
 435 711 491.93 699.85 543 676 c 0
 583.944 656.879 698 591 699 462 c 0
EndSplineSet
EndChar
StartChar: Xi
Encoding: 926 926 170
Width: 700
Flags: W
TeX: 694 0 32767 32767
HStem: -0 59<43 655> 330 59<116 582> 633 59<49 649>
Fore
49 692 m 1
 649 692 l 1
 649 633 l 1
 49 633 l 1
 49 692 l 1
116 389 m 1
 582 389 l 1
 582 330 l 1
 116 330 l 1
 116 389 l 1
43 59 m 1
 655 59 l 1
 655 -0 l 1
 43 -0 l 1
 43 59 l 1
EndSplineSet
EndChar
StartChar: Psi
Encoding: 936 936 171
Width: 817
Flags: W
TeX: 694 0 32767 32767
HStem: 0 21G<373 440> 675 20G<373 440>
VStem: 373 67<0 106 157 695>
Fore
373 695 m 1
 440 695 l 1
 440 157 l 1
 484 166 596 195 607 384 c 0
 611.19 455.989 598 597 681 608 c 0
 689 609 698 609 706 609 c 2
 758 609 l 1
 758 558 l 1
 661 551 679.162 411.978 670 345 c 0
 641 133 485 111 440 106 c 1
 440 0 l 1
 373 0 l 1
 373 106 l 1
 125 134 143 397 141 433 c 0
 138 475 126 553 58 558 c 1
 58 609 l 1
 110 609 l 2
 141 609 179 609 198 540 c 0
 225 436 164 200 373 157 c 1
 373 695 l 1
EndSplineSet
EndChar
StartChar: alpha
Encoding: 945 945 172
Width: 665
Flags: W
TeX: 472 0 32767 32767
HStem: -8 82<490 554> -8 62<187 281> 419 61<217 252>
VStem: 43 65<155 307.5> 383 71<176 186.5>
Fore
619 74 m 1xb8
 615 5 559 -8 534 -8 c 0xb8
 446 -8 414 104 409 106 c 1
 363 36 308 -7 239 -8 c 0x78
 135 -8 43 95 43 236 c 0
 43 379 134 470 223 480 c 0
 238 480 l 0
 351 480 399 355 426 269 c 1
 455 345 l 1
 500 480 l 1
 565 480 l 1
 472 195 454 191 454 178 c 0
 454 174 455 171 457 165 c 0
 475 111 502 49 539 55 c 1
 549 60 551 61 554 74 c 1
 619 74 l 1xb8
237 54 m 0x78
 325 54 383 175 383 182 c 0
 383 191 351 304 331 345 c 0
 303 402 268 419 236 419 c 0
 198 419 165 395 154 384 c 0
 134 364 108 326 108 235 c 0
 108 75 198 54 237 54 c 0x78
EndSplineSet
EndChar
StartChar: beta
Encoding: 946 946 173
Width: 525
Flags: W
TeX: 694 166 32767 32767
HStem: -8 49<216.5 300> 658 45<176.02 286>
VStem: 43 65<-120 502.5> 364 64<502 603.5> 416 64<137 281.5>
Fore
328 395 m 1xf0
 477 362 480 239 480 198 c 0xe8
 480 76 382 6 293 -6 c 0
 283 -7 273 -8 263 -8 c 0
 170 -8 125 62 108 92 c 1
 108 -120 l 1
 43 -120 l 1
 43 459 l 2
 43 546 52 625 110 668 c 0
 145 695 191 703 235 703 c 0
 337 703 428 670 428 537 c 0
 428 467 395 428 328 395 c 1xf0
108 240 m 2
 108 70 217 41 262 41 c 0
 338 41 416 100 416 198 c 0xe8
 416 365 265 362 218 366 c 2
 182 367 l 1
 182 409 l 1
 216 411 253.899 412.2 297 434 c 0
 352.869 462.259 364 501 364 536 c 0xf0
 364 634 301 658 235 658 c 0
 117.039 658 114.172 564.251 109 516 c 2
 108 492 l 1
 108 240 l 2
EndSplineSet
EndChar
StartChar: sigma1
Encoding: 962 962 174
Width: 467
Flags: W
TeX: 472 166 32767 32767
VStem: 41 64<154 261.5> 356 66<-76.5 -9.5>
Fore
261 -58 m 1
 320 -58 356 -52 356 -28 c 0
 356 9 248.971 -4.20687 206 2 c 0
 116 15 41 99 41 209 c 0
 41 314 115 472 422 472 c 1
 422 408 l 1
 298 408 182 382 131 299 c 0
 114 271 105 238 105 206 c 0
 105 139 147 73 215 63 c 0
 240 59 374.876 70.9277 412 7 c 0
 418.977 -5.01359 422 -17 422 -28 c 0
 422 -125 266 -119 261 -120 c 1
 261 -58 l 1
EndSplineSet
EndChar
StartChar: delta
Encoding: 948 948 175
Width: 496
Flags: W
TeX: 694 0 32767 32767
HStem: -8 51<192 278.5> 641 52<126.5 158>
VStem: 43 64<158.5 285.5> 60 51<563.5 618.5> 387 64<157.5 278.5>
Fore
210 453 m 1xe8
 104 518 60 533 60 594 c 0
 60 643 100 693 153 693 c 0
 193 692 194 682 423 545 c 1
 397 501 l 1
 396 501 l 1
 182 632 161 641 155 641 c 0
 129 641 111 617 111 596 c 0xd8
 111 566 149 550 157 545 c 2
 352 427 l 1
 351 424 l 1
 414 383 451 305 451 224 c 0
 451 91 361 17 295 -2 c 0
 283 -5 267 -8 247 -8 c 0
 137 -8 43 93 43 224 c 0
 43 347 124 435 210 453 c 1xe8
250 406 m 0
 170 406 107 320 107 218 c 0xe8
 108 135 144 93 158 80 c 0
 181 57 212 43 245 43 c 0
 312 43 365 101 382 180 c 0
 385 196 387 214 387 231 c 0
 387 326 332 406 250 406 c 0
EndSplineSet
EndChar
StartChar: epsilon
Encoding: 949 949 176
Width: 452
Flags: W
TeX: 472 0 32767 32767
HStem: -8 64<177 274.5> 416 64<179.5 255.5>
VStem: 43 64<129.5 164> 58 63<317 393.5>
Fore
121 345 m 0xd0
 121 289 186 275 276 275 c 1
 276 225 l 1
 251 225 153 229 120 192 c 0
 111 181 107 167 107 153 c 0
 107 106 151 56 228 56 c 0
 321 56 355 101 359 101 c 1
 404 56 l 1
 354 9 294 -8 228 -8 c 0
 126 -8 74 50 57 83 c 0
 48 101 43 122 43 142 c 0xe0
 43 186 66 228 132 252 c 1
 106 268 58 294 58 356 c 0
 58 431 133 480 226 480 c 0
 285 480 347 462 393 416 c 1
 348 371 l 1
 347 371 l 1
 312 401 276 416 226 416 c 0
 167 416 122 388 121 345 c 0xd0
EndSplineSet
KernsSLIFO: 184 -47 2 0
EndChar
StartChar: phi
Encoding: 966 966 177
Width: 612
Flags: W
TeX: 472 166 32767 32767
HStem: -167 21G<273 338> 429 51<395 476>
VStem: 43 52<182 287.5> 273 65<-167 -6 46 369> 516 51<166 323>
Fore
273 294 m 2
 273 444 370 480 420 480 c 0
 532 480 567 340 567 241 c 0
 567 109 471 12 338 -6 c 1
 338 -167 l 1
 273 -167 l 1
 273 -6 l 1
 221 1 167 20 120 63 c 0
 69 110 43 172 43 241 c 0
 43 303 58 391 102 472 c 1
 174 472 l 1
 129 406 95 335 95 240 c 0
 95 124 188 58 273 46 c 1
 273 294 l 2
338 46 m 1
 374 51 516 87 516 245 c 0
 516 401 459 429 421 429 c 0
 372 429 341 380 338 318 c 1
 338 46 l 1
EndSplineSet
EndChar
StartChar: gamma
Encoding: 947 947 178
Width: 583
Flags: W
TeX: 472 166 32767 32767
HStem: 415 65<103.5 159.5>
VStem: 246 91<-118.5 -46> 261 65<46.5 68.5>
Fore
337 -95 m 0xc0
 337 -142 303 -147 291 -147 c 0
 274 -147 246 -137 246 -96 c 0xc0
 246 4 261 28 261 65 c 0
 261 72 260 79 259 88 c 0
 252 135 202 415 117 415 c 0
 98 415 95 398 94 395 c 1
 29 395 l 1
 33 466 92 480 115 480 c 0
 165 480 202 438 241 347 c 0
 268 284 289 220 297 188 c 1
 381 389 439 477 539 480 c 1
 539 416 l 1
 478 413 440.269 375.88 391 266 c 0
 340.277 152.876 326 70 326 58 c 2xa0
 326 58 337 -3 337 -95 c 0xc0
EndSplineSet
EndChar
StartChar: eta
Encoding: 951 951 179
Width: 540
Flags: W
TeX: 472 166 32767 32767
HStem: -167 21G<431 495> 0 21G<134 199> 396 93<91 145>
VStem: 134 65<0 319.5> 431 64<-167 349>
Fore
431 272 m 2
 431 426 314 425 314 425 c 1
 188 413 199 270 199 263 c 2
 199 0 l 1
 134 0 l 1
 134 297 l 2
 134 342 133 402 121 419 c 1
 117 423 l 1
 113 425 l 1
 109 426 l 1
 99 423 93 416 91 396 c 1
 29 396 l 1
 31 471 88 489 113 489 c 0
 177 489 188 420 193 396 c 1
 207 425 247 488 331 489 c 0
 418 488 460 418 475 384 c 0
 498 330 495 284 495 252 c 2
 495 -167 l 1
 431 -167 l 1
 431 272 l 2
EndSplineSet
EndChar
StartChar: iota
Encoding: 953 953 180
Width: 292
Flags: W
TeX: 472 0 32767 32767
HStem: -8 52<117 171> 453 20G<43 107>
VStem: 43 65<139 473>
Fore
43 473 m 1
 107 473 l 1
 108 472 l 1
 108 145 l 2
 108 103 110 44 159 44 c 0
 183 44 209 66 210 125 c 1
 255 125 l 1
 255 113 254 102 252 90 c 0
 238 23 191 -8 149 -8 c 0
 85 -8 48 51 44 104 c 0
 43 115 43 127 43 139 c 2
 43 473 l 1
EndSplineSet
KernsSLIFO: 187 -29 2 0 181 -17 2 0 178 -117 2 0 179 -17 2 0 185 -29 2 0 189 -29 2 0 174 -29 2 0 184 -87 2 0 190 -29 2 0
EndChar
StartChar: theta
Encoding: 952 952 181
Width: 525
Flags: W
TeX: 694 0 32767 32767
HStem: -8 64<196 328> 338 51<108 416> 638 65<195 334.5>
Fore
43 346 m 0
 43 556 128 703 262 703 c 0
 407 703 480 536 480 348 c 0
 480 136 394 -8 262 -8 c 0
 130 -8 43 133 43 346 c 0
415 389 m 1
 408 489 384 638 261 638 c 0
 139 638 115 489 108 389 c 1
 415 389 l 1
108 338 m 1
 111 97 200 56 261 56 c 0
 323 56 413 98 416 338 c 1
 108 338 l 1
EndSplineSet
EndChar
StartChar: kappa
Encoding: 954 954 182
Width: 507
Flags: W
TeX: 472 0 32767 32767
HStem: -0 21G<58 123 356 448> 453 20G<58 123>
VStem: 58 65<-0 473>
Fore
58 473 m 1
 123 473 l 1
 123 246 l 1
 322 439 340 470 429 472 c 1
 429 414 l 1
 373 413 346 380 335 370 c 2
 204 244 l 1
 448 -0 l 1
 356 -0 l 1
 158 199 l 1
 123 165 l 1
 123 -0 l 1
 58 -0 l 1
 58 473 l 1
EndSplineSet
KernsSLIFO: 185 -47 2 0 172 -47 2 0
EndChar
StartChar: lambda
Encoding: 955 955 183
Width: 525
Flags: W
TeX: 694 0 32767 32767
HStem: 0 21G<29 99 426 496> 629 66<79.5 106>
Fore
29 663 m 1
 52 684 70 695 97 695 c 0
 219 693 278.688 522.872 299 474 c 2
 496 0 l 1
 426 0 l 1
 269 378 l 1
 99 0 l 1
 29 0 l 1
 228 444 l 2
 231 452 233 457 233 461 c 0
 233 466 231 471 226 482 c 0
 168 617 120 629 92 629 c 0
 67 629 57 612 40 599 c 1
 29 663 l 1
EndSplineSet
EndChar
StartChar: nu
Encoding: 957 957 184
Width: 496
Flags: W
TeX: 472 0 32767 32767
HStem: 0 21G<215 280> 452 20G<-0 88 387 452>
VStem: 403 63<303.5 375>
Fore
466 369 m 0
 466 242 354 116 280 0 c 1
 215 0 l 1
 99 337 l 2
 70 421 56 421 -0 472 c 1
 88 472 l 1
 139 428 144.797 400.931 156 368 c 2
 255 77 l 1
 292 133 403 248 403 359 c 0
 403 374 399 392 387 472 c 1
 452 472 l 1
 466 382 466 381 466 369 c 0
EndSplineSet
KernsSLIFO: 190 41 2 0
EndChar
StartChar: omicron
Encoding: 959 959 185
Width: 554
Flags: W
TeX: 472 0 32767 32767
HStem: -8 64<211.5 290.5> 416 64<231.5 340>
VStem: 43 65<168.5 301> 445 64<171 304>
Fore
276 -8 m 0
 147 -8 43 101 43 236 c 0
 43 366 132 435 175 456 c 0
 211 475 247 480 276 480 c 0
 404 480 509 372 509 236 c 0
 509 106 419 37 378 16 c 0
 341 -2 305 -8 276 -8 c 0
445 236 m 0
 445 335 370 416 276 416 c 0
 187 416 108 340 108 236 c 0
 108 137 182 56 276 56 c 0
 375 57 445 141 445 236 c 0
EndSplineSet
KernsSLIFO: 187 -29 2 0 190 -23 2 0 184 -23 2 0 178 -29 2 0 183 -29 2 0
EndChar
StartChar: pi
Encoding: 960 960 186
Width: 612
Flags: W
TeX: 472 0 32767 32767
HStem: -8 60<440 487> 410 62<124 179 164 567>
VStem: 152 65<-8 410> 360 64<83.5 410>
Fore
424 97 m 2
 424 70 439 52 482 52 c 0
 537 53 538 86 539 88 c 1
 584 88 l 1
 580 8 502 -8 472 -8 c 0
 408 -8 366 34 361 77 c 0
 359 87 360 97 360 107 c 2
 360 410 l 1
 217 410 l 1
 217 -8 l 1
 152 -8 l 1
 152 410 l 1
 96 410 59 398 36 391 c 1
 17 453 l 1
 89 474 149 472 179 472 c 2
 567 472 l 1
 567 410 l 1
 424 410 l 1
 424 97 l 2
EndSplineSet
EndChar
StartChar: chi
Encoding: 967 967 187
Width: 583
Flags: W
TeX: 472 166 32767 32767
HStem: -177 66<481.5 527> 417 66<53 89>
Fore
285 84 m 1
 119 -175 l 1
 43 -175 l 1
 254 155 l 1
 211 263 175 327 146 362 c 0
 132 380 102 417 55 417 c 0
 51 417 47 416 43 416 c 1
 43 480 l 1
 52 482 60 483 69 483 c 0
 109 483 181 468 269 283 c 0
 278 263 288 243 296 222 c 1
 462 480 l 1
 538 480 l 1
 327 150 l 1
 370 44 406 -21 435 -57 c 0
 458 -85 484 -111 525 -111 c 0
 529 -111 534 -111 538 -110 c 1
 539 -139 l 1
 539 -175 l 1
 530 -176 521 -177 512 -177 c 0
 451 -177 401 -130 360 -65 c 0
 325 -9 292 67 285 84 c 1
EndSplineSet
EndChar
StartChar: rho
Encoding: 961 961 188
Width: 496
Flags: W
TeX: 472 166 32767 32767
HStem: -167 21G<43 108> -8 52<205 289> 429 51<205.5 289>
VStem: 43 65<-167 240> 387 64<190 297.5>
Fore
247 -8 m 0
 191 -8 148 14 108 56 c 1
 108 -167 l 1
 43 -167 l 1
 43 214 l 2
 43 266 46 312 74 367 c 0
 91 400 143 479 247 480 c 0
 373 479 451 359 451 236 c 0
 451 144 407.803 58.3271 339 17 c 0
 310.92 0.133509 279 -8 247 -8 c 0
247 429 m 0
 164 429 109 346 108 235 c 0
 108 131 163 44 247 44 c 0
 331 44 385 127 387 237 c 0
 387 341 331 429 247 429 c 0
EndSplineSet
EndChar
StartChar: sigma
Encoding: 963 963 189
Width: 598
Flags: W
TeX: 472 0 32767 32767
HStem: -8 64<211.5 322.5> 408 64<229.5 568>
VStem: 43 65<165.5 281> 445 64<164 295>
Fore
276 -8 m 0
 147 -8 43 99 43 232 c 0
 43 313 81 386 145 431 c 0
 204 472 258 472 294 472 c 2
 568 472 l 1
 568 408 l 1
 435 408 l 1
 482 361 509 304 509 232 c 0
 509 96 406 3 297 -7 c 0
 290 -8 283 -8 276 -8 c 0
445 232 m 0
 445 358 340 408 276 408 c 0
 183 408 108 330 108 232 c 0
 108 106 213 56 276 56 c 0
 369 56 445 134 445 232 c 0
EndSplineSet
KernsSLIFO: 190 64 2 0
EndChar
StartChar: tau
Encoding: 964 964 190
Width: 481
Flags: W
TeX: 472 0 32767 32767
HStem: -8 60<243.5 293.5> 410 62<98.5 436>
VStem: 182 65<86 410>
Fore
356 88 m 1
 353 10 295 -8 269 -8 c 0
 218 -8 187 37 183 76 c 0
 182 86 182 97 182 107 c 2
 182 410 l 1
 128 410 l 2
 61 410 57 403 24 392 c 1
 -0 452 l 1
 52 469 65 472 132 472 c 2
 436 472 l 1
 436 410 l 1
 247 410 l 1
 247 98 l 2
 247 74 253 52 279 52 c 0
 308 52 311 87 311 88 c 1
 356 88 l 1
EndSplineSet
KernsSLIFO: 185 -29 2 0 192 -29 2 0 172 -29 2 0
EndChar
StartChar: upsilon
Encoding: 965 965 191
Width: 525
Flags: W
TeX: 472 0 32767 32767
HStem: -8 64<240 347> 452 20G<43 115 353 426>
VStem: 416 64<172.5 286.5>
Fore
416 240 m 0
 416 333 389 404 353 472 c 1
 426 472 l 1
 458 405 479 332 480 238 c 0
 480 107 404 -8 290 -8 c 0
 190 -8 116 81 102 197 c 0
 93 265 115 313 43 472 c 1
 115 472 l 1
 172 342 162 242 166 209 c 0
 174 122 222 56 290 56 c 0
 365 56 416 134 416 240 c 0
EndSplineSet
EndChar
StartChar: omega
Encoding: 969 969 192
Width: 700
Flags: W
TeX: 472 0 32767 32767
HStem: -8 52<180 225 439.5 539> 452 20G<173 250 449 526>
VStem: 41 65<156 255.5> 320 59<205 300> 593 65<156 265>
CounterMasks: 1 00
Fore
250 472 m 1
 173 390 106 311 106 200 c 0
 106 112 148 44 212 44 c 0
 238 44 259 55 274 69 c 0
 327 121 320 210 320 238 c 2
 320 300 l 1
 379 300 l 1
 379 239 l 2
 379 171 381 112 426 69 c 0
 440 55 461 44 487 44 c 0
 551 44 593 112 593 200 c 0
 593 330 492 426 449 472 c 1
 526 472 l 1
 647 352 658 248 658 200 c 0
 657 90 590 -8 488 -8 c 0
 391 -8 351 81 349 82 c 1
 335 56 295 -7 211 -8 c 0
 109 -7 42 89 41 201 c 0
 41 250 53 353 173 472 c 1
 250 472 l 1
EndSplineSet
EndChar
StartChar: xi
Encoding: 958 958 193
Width: 496
Flags: W
TeX: 694 166 32767 32767
HStem: -20 20G<185.5 306> 690 20G<58 122>
VStem: 43 65<160 291.5> 127 50<526 561.5>
Fore
127 545 m 0
 127 572 136 591 156 614 c 1
 69 625 59 673 58 710 c 1
 122 710 l 1
 127 674 158 674 181 672 c 2
 193 672 l 2
 262 674 381 708 397 710 c 1
 412 648 l 1
 243 606 253 622 220 608 c 0
 188 593 177 573 177 550 c 0
 177 502 214 489 387 489 c 1
 387 425 l 1
 385 423 319.079 427.812 246 397 c 0
 203.047 378.89 108 322 108 214 c 0
 108 129 169 80 217 68 c 0
 256 59 451 80 451 -32 c 0
 451 -71 421 -128 278 -129 c 1
 278 -67 l 1
 384 -67 377 -49 385 -40 c 1
 386 -32 l 1
 381 -9 359 -0 253 -0 c 0
 118 -0 43 108 43 212 c 0
 43 371 193 442 198 445 c 1
 141 469 127 511 127 545 c 0
EndSplineSet
EndChar
StartChar: psi
Encoding: 968 968 194
Width: 612
Flags: W
TeX: 694 166 32767 32767
HStem: -167 21G<276 334> 452 20G<72 137 474 538> 675 20G<276 334>
VStem: 43 52<205.5 324> 276 58<-167 -6 45 695> 516 51<200 322>
Fore
567 287 m 0
 567 113 449 8 334 -6 c 1
 334 -167 l 1
 276 -167 l 1
 276 -6 l 1
 150 9 43 124 43 287 c 0
 43 361 58 426 72 472 c 1
 137 472 l 1
 114 420 95 361 95 286 c 0
 95 176 157 81 249 52 c 2
 276 45 l 1
 276 695 l 1
 334 695 l 1
 334 45 l 1
 363 52 432 65 483 154 c 0
 508 200 516 247 516 286 c 0
 515 361 500 412 474 472 c 1
 538 472 l 1
 556 412 567 357 567 287 c 0
EndSplineSet
EndChar
StartChar: zeta
Encoding: 950 950 195
Width: 496
Flags: W
TeX: 694 166 32767 32767
HStem: -20 20G<177.5 288> 582 53<187 252.5> 687 20G<58 122>
VStem: 43 65<196.5 331> 386 65<-70 23.3715>
Fore
247 -65 m 1
 339 -65 386 -58 386 -32 c 0
 386 -3 319 -0 257 -0 c 0
 98 -0 43 150 43 251 c 0
 43 384 119 488 231 582 c 1
 206 582 l 2
 114 587 60 630 58 707 c 1
 122 707 l 1
 125 647 168 635 206 635 c 0
 299 635 407 705 412 706 c 1
 445 651 l 1
 238 528 108 411 108 251 c 0
 108 142 168.05 76.2957 229 66 c 0
 261.528 60.5054 451 78.743 451 -32 c 0
 451 -108 364 -126 247 -126 c 1
 247 -65 l 1
EndSplineSet
EndChar
StartChar: guillemotleft
Encoding: 171 171 197
Width: 700
Flags: W
TeX: 103 0 0 0
HStem: 0 21G<363 419 538 594> 452 20G<363 419 538 594>
Fore
116 236 m 1
 363 472 l 1
 419 472 l 1
 176 236 l 1
 419 0 l 1
 363 0 l 1
 116 236 l 1
291 236 m 1
 538 472 l 1
 594 472 l 1
 351 236 l 1
 594 0 l 1
 538 0 l 1
 291 236 l 1
EndSplineSet
Substitution: 0 8 'locl' guillemotleftgr
Substitution: 0 8 'salt' guillemotleftgr
Substitution: 0 0 'salt' guillemotleftlat
Substitution: 0 0 'locl' guillemotleftlat
EndChar
StartChar: guillemotright
Encoding: 187 187 198
Width: 700
Flags: W
TeX: 103 0 0 0
HStem: 0 21G<105 161 280 336> 452 20G<105 161 280 336>
Fore
408 236 m 1
 161 0 l 1
 105 0 l 1
 348 236 l 1
 105 472 l 1
 161 472 l 1
 408 236 l 1
583 236 m 1
 336 0 l 1
 280 0 l 1
 523 236 l 1
 280 472 l 1
 336 472 l 1
 583 236 l 1
EndSplineSet
Substitution: 0 8 'locl' guillemotrightgr
Substitution: 0 8 'salt' guillemotrightgr
Substitution: 0 0 'salt' guillemotrightlat
Substitution: 0 0 'locl' guillemotrightlat
EndChar
StartChar: afii10067
Encoding: 1074 1074 199
Width: 492
Flags: W
TeX: 0 0 0 0
HStem: 0 50<80 276> 240 40<141 203> 423 49<80 275.5>
VStem: 80 61<0 472> 373 59<328.5 393.5> 395 60<110.5 170>
Fore
432 358 m 0xf8
 432 299 362 276 312 260 c 1
 414 229 455 187 455 140 c 0xf4
 455 81 428 50 419 42 c 0
 374 -2 300 0 252 0 c 2
 80 0 l 1
 80 472 l 1
 248 472 l 2
 303 472 367 473 405 433 c 0
 424 413 432 381 432 358 c 0xf8
373 355 m 0xf8
 373 432 245 423 230 423 c 2
 142 423 l 1
 141 370 l 1
 141 280 l 1
 194 280 260 276 327 305 c 0
 340 311 373 325 373 355 c 0xf8
142 240 m 1
 141 211 l 1
 141 50 l 1
 221 50 l 2
 289 50 385 51 394 131 c 0
 395 135 395 138 395 141 c 0xf4
 395 199 321 233 255 239 c 0
 238 240 220 240 203 240 c 2
 142 240 l 1
EndSplineSet
EndChar
StartChar: afii10075
Encoding: 1081 1081 200
Width: 533
Flags: W
TeX: 0 0 0 0
HStem: -0 21<81 172 389 450> 452 20<81 142 359 450> 526 55<224.5 306.5>
VStem: 81 61<-0 472> 95 50<667 667> 386 50<667 667> 389 61<-0 472>
Fore
265 581 m 0xec
 295 581 381 592 386 667 c 1
 436 667 l 1
 433 574 347 526 266 526 c 0
 183 526 98 574 95 667 c 1
 145 667 l 1
 150 592 236 581 265 581 c 0xec
EndSplineSet
Refer: 144 1080 S 1 0 0 1 0 0 2
EndChar
StartChar: afii10027
Encoding: 1049 1049 201
Width: 704
Flags: W
TeX: 0 0 0 0
HStem: 0 21G<98 194 539 605> 675 20G<98 164 509 605>
VStem: 98 66<0 695> 539 66<0 695>
Fore
352 794 m 0
 415 794 469 831 472 890 c 1
 523 890 l 1
 520 792 434 739 352 739 c 0
 267 739 184 794 181 890 c 1
 231 890 l 1
 235 821 301 794 352 794 c 0
EndSplineSet
Refer: 124 1048 N 1 0 0 1 0 0 2
EndChar
StartChar: afii10023
Encoding: 1025 1025 202
Width: 625
Flags: W
TeX: 0 0 0 0
HStem: 0 56<98 581> 335 53<168 537> 641 54<98 566> 815 63<198 261 403 466>
VStem: 98 70<0 695> 198 63<815 878> 403 63<815 878>
Fore
403 815 m 1
 403 878 l 1
 466 878 l 1
 466 815 l 1
 403 815 l 1
198 815 m 1
 198 878 l 1
 261 878 l 1
 261 815 l 1
 198 815 l 1
EndSplineSet
Refer: 42 69 N 1 0 0 1 0 0 2
EndChar
StartChar: afii10071
Encoding: 1105 1105 203
Width: 467
Flags: W
TeX: 0 0 0 0
HStem: -8 50<203 301.5> 250 40<102 433> 434 50<187.5 283.5> 593 63<99 162 303 366>
VStem: 42 60<169.5 303> 99 63<593 656> 303 63<593 656>
Fore
303 593 m 1xf2
 303 656 l 1
 366 656 l 1
 366 593 l 1
 303 593 l 1xf2
99 593 m 1xf6
 99 656 l 1
 162 656 l 1
 162 593 l 1
 99 593 l 1xf6
EndSplineSet
Refer: 74 101 N 1 0 0 1 0 0 2
EndChar
